<svg width="28" height="31" viewBox="0 0 28 31" fill="none" xmlns="http://www.w3.org/2000/svg">
<path d="M27.1069 22.7055C26.3835 24.3108 26.0375 25.0268 25.1043 26.4459C23.8041 28.4262 21.9692 30.8944 19.6991 30.9153C17.6807 30.9337 17.1617 29.6013 14.4224 29.617C11.6831 29.6327 11.1117 30.939 9.09327 30.9206C6.82321 30.8996 5.08528 28.6727 3.78511 26.6898C0.146725 21.1501 -0.230746 14.6478 2.01048 11.1934C3.60424 8.73572 6.11808 7.29834 8.48251 7.29834C10.8889 7.29834 12.404 8.6203 14.3936 8.6203C16.3255 8.6203 17.5025 7.29834 20.2837 7.29834C22.3886 7.29834 24.6167 8.44457 26.2052 10.4275C21.0019 13.2787 21.8486 20.7173 27.1069 22.7055Z" fill="#1B1C20"/>
<path d="M18.1714 5.08631C19.1833 3.78795 19.9513 1.95189 19.6708 0.0791016C18.0194 0.191888 16.0875 1.24369 14.9577 2.61549C13.9328 3.86139 13.0887 5.70532 13.4164 7.49942C15.2225 7.5545 17.0888 6.47647 18.1714 5.08631Z" fill="#1B1C20"/>
</svg>
