<svg width="397" height="268" viewBox="0 0 397 268" fill="none" xmlns="http://www.w3.org/2000/svg">
<path d="M129.995 368.798C60.6626 368.798 4.456 312.513 4.456 243.08C4.45601 173.647 60.6626 117.362 129.995 117.362C199.328 117.362 255.535 173.647 255.535 243.08C255.535 312.513 199.328 368.798 129.995 368.798Z" stroke="#E5E5E5"/>
<path d="M143.263 373.78C65.6867 373.78 2.79769 310.802 2.79769 233.115C2.7977 155.427 65.6868 92.4502 143.263 92.4502C220.839 92.4502 283.728 155.427 283.728 233.115C283.728 310.802 220.839 373.78 143.263 373.78Z" stroke="#E5E5E5"/>
<path d="M154.042 378.763C69.139 378.763 0.309957 309.837 0.30996 224.812C0.309964 139.787 69.139 70.8613 154.042 70.8613C238.946 70.8613 307.775 139.787 307.775 224.812C307.775 309.837 238.946 378.763 154.042 378.763Z" stroke="#E5E5E5"/>
<path d="M169.798 382.084C78.4829 382.084 4.45641 307.953 4.45641 216.508C4.45642 125.062 78.4829 50.9316 169.798 50.9316C261.113 50.9316 335.139 125.062 335.139 216.508C335.139 307.953 261.113 382.084 169.798 382.084Z" stroke="#E5E5E5"/>
<path d="M185.138 385.405C87.6406 385.405 8.60225 306.256 8.60226 208.619C8.60226 110.982 87.6406 31.833 185.138 31.833C282.635 31.833 361.674 110.982 361.674 208.619C361.674 306.256 282.635 385.405 185.138 385.405Z" stroke="#E5E5E5"/>
<path d="M202.551 389.558C95.4368 389.558 8.60225 302.601 8.60226 195.334C8.60226 88.0658 95.4368 1.10936 202.551 1.10937C309.666 1.10937 396.5 88.0658 396.5 195.334C396.5 302.601 309.666 389.558 202.551 389.558Z" stroke="#E5E5E5"/>
</svg>
