<svg width="60" height="61" viewBox="0 0 60 61" fill="none" xmlns="http://www.w3.org/2000/svg">
<g filter="url(#filter0_d_1323_974)">
<path fill-rule="evenodd" clip-rule="evenodd" d="M30 48.8781C41.0457 48.8781 50 39.9237 50 28.8781C50 17.8324 41.0457 8.87805 30 8.87805C18.9543 8.87805 10 17.8324 10 28.8781C10 39.9237 18.9543 48.8781 30 48.8781Z" fill="white"/>
</g>
<path fill-rule="evenodd" clip-rule="evenodd" d="M32.5449 26.6771C32.2326 26.5784 31.8735 26.5125 31.5456 26.5125C31.1397 26.5125 30.2654 26.7924 30.2654 27.3357V28.6364H32.3419V30.8261H30.2654V36.8684H28.1733V30.8261H27.1428V28.6364H28.1733V27.5333C28.1733 25.8704 28.8915 24.4874 30.6245 24.4874C31.2178 24.4874 32.2794 24.5204 32.8571 24.7344L32.5449 26.6771Z" fill="#444444"/>
<defs>
<filter id="filter0_d_1323_974" x="0" y="0.878052" width="60" height="60" filterUnits="userSpaceOnUse" color-interpolation-filters="sRGB">
<feFlood flood-opacity="0" result="BackgroundImageFix"/>
<feColorMatrix in="SourceAlpha" type="matrix" values="0 0 0 0 0 0 0 0 0 0 0 0 0 0 0 0 0 0 127 0" result="hardAlpha"/>
<feOffset dy="2"/>
<feGaussianBlur stdDeviation="5"/>
<feColorMatrix type="matrix" values="0 0 0 0 0 0 0 0 0 0 0 0 0 0 0 0 0 0 0.1 0"/>
<feBlend mode="normal" in2="BackgroundImageFix" result="effect1_dropShadow_1323_974"/>
<feBlend mode="normal" in="SourceGraphic" in2="effect1_dropShadow_1323_974" result="shape"/>
</filter>
</defs>
</svg>
