<svg width="99" height="26" viewBox="0 0 99 26" fill="none" xmlns="http://www.w3.org/2000/svg">
<path d="M7.464 21.216C6.552 21.216 5.64 21.184 4.728 21.12C3.832 21.072 2.896 20.944 1.92 20.736V4.608C2.688 4.464 3.528 4.36 4.44 4.296C5.352 4.216 6.2 4.176 6.984 4.176C8.04 4.176 9.008 4.256 9.888 4.416C10.784 4.56 11.552 4.816 12.192 5.184C12.832 5.552 13.328 6.04 13.68 6.648C14.048 7.24 14.232 7.976 14.232 8.856C14.232 10.184 13.592 11.232 12.312 12C13.368 12.4 14.088 12.944 14.472 13.632C14.856 14.32 15.048 15.096 15.048 15.96C15.048 17.704 14.408 19.016 13.128 19.896C11.864 20.776 9.976 21.216 7.464 21.216ZM5.568 13.752V18.048C5.84 18.08 6.136 18.104 6.456 18.12C6.776 18.136 7.128 18.144 7.512 18.144C8.632 18.144 9.536 17.984 10.224 17.664C10.912 17.344 11.256 16.752 11.256 15.888C11.256 15.12 10.968 14.576 10.392 14.256C9.816 13.92 8.992 13.752 7.92 13.752H5.568ZM5.568 10.896H7.392C8.544 10.896 9.368 10.752 9.864 10.464C10.36 10.16 10.608 9.68 10.608 9.024C10.608 8.352 10.352 7.88 9.84 7.608C9.328 7.336 8.576 7.2 7.584 7.2C7.264 7.2 6.92 7.208 6.552 7.224C6.184 7.224 5.856 7.24 5.568 7.272V10.896ZM22.989 21.24C21.949 21.224 21.101 21.112 20.445 20.904C19.805 20.696 19.293 20.408 18.909 20.04C18.541 19.656 18.285 19.2 18.141 18.672C18.013 18.128 17.949 17.52 17.949 16.848V2.952L21.525 2.376V16.128C21.525 16.448 21.549 16.736 21.597 16.992C21.645 17.248 21.733 17.464 21.861 17.64C22.005 17.816 22.205 17.96 22.461 18.072C22.717 18.184 23.061 18.256 23.493 18.288L22.989 21.24ZM37.4948 14.664C37.4948 15.656 37.3508 16.568 37.0628 17.4C36.7748 18.216 36.3588 18.92 35.8148 19.512C35.2708 20.088 34.6148 20.536 33.8468 20.856C33.0948 21.176 32.2468 21.336 31.3028 21.336C30.3748 21.336 29.5268 21.176 28.7588 20.856C28.0068 20.536 27.3588 20.088 26.8148 19.512C26.2708 18.92 25.8468 18.216 25.5428 17.4C25.2388 16.568 25.0868 15.656 25.0868 14.664C25.0868 13.672 25.2388 12.768 25.5428 11.952C25.8628 11.136 26.2948 10.44 26.8388 9.864C27.3988 9.288 28.0548 8.84 28.8068 8.52C29.5748 8.2 30.4068 8.04 31.3028 8.04C32.2148 8.04 33.0468 8.2 33.7988 8.52C34.5668 8.84 35.2228 9.288 35.7668 9.864C36.3108 10.44 36.7348 11.136 37.0388 11.952C37.3428 12.768 37.4948 13.672 37.4948 14.664ZM33.8468 14.664C33.8468 13.56 33.6228 12.696 33.1748 12.072C32.7428 11.432 32.1188 11.112 31.3028 11.112C30.4868 11.112 29.8548 11.432 29.4068 12.072C28.9588 12.696 28.7348 13.56 28.7348 14.664C28.7348 15.768 28.9588 16.648 29.4068 17.304C29.8548 17.944 30.4868 18.264 31.3028 18.264C32.1188 18.264 32.7428 17.944 33.1748 17.304C33.6228 16.648 33.8468 15.768 33.8468 14.664ZM47.8076 13.752C47.4876 14.968 47.1436 16.176 46.7756 17.376C46.4236 18.576 46.0476 19.784 45.6476 21H42.8636C42.5756 20.328 42.2636 19.528 41.9276 18.6C41.5916 17.672 41.2396 16.664 40.8716 15.576C40.5196 14.472 40.1516 13.312 39.7676 12.096C39.3996 10.864 39.0396 9.624 38.6876 8.376H42.4556C42.5836 8.952 42.7196 9.584 42.8636 10.272C43.0236 10.944 43.1836 11.64 43.3436 12.36C43.5196 13.08 43.6956 13.808 43.8716 14.544C44.0636 15.264 44.2556 15.96 44.4476 16.632C44.6556 15.928 44.8556 15.208 45.0476 14.472C45.2556 13.736 45.4476 13.016 45.6236 12.312C45.8156 11.592 45.9916 10.904 46.1516 10.248C46.3276 9.576 46.4796 8.952 46.6076 8.376H49.1996C49.3276 8.952 49.4716 9.576 49.6316 10.248C49.7916 10.904 49.9596 11.592 50.1356 12.312C50.3116 13.016 50.4956 13.736 50.6876 14.472C50.8796 15.208 51.0796 15.928 51.2876 16.632C51.4796 15.96 51.6716 15.264 51.8636 14.544C52.0556 13.808 52.2316 13.08 52.3916 12.36C52.5676 11.64 52.7276 10.944 52.8716 10.272C53.0316 9.584 53.1756 8.952 53.3036 8.376H57.0236C56.6716 9.624 56.3036 10.864 55.9196 12.096C55.5516 13.312 55.1836 14.472 54.8156 15.576C54.4636 16.664 54.1116 17.672 53.7596 18.6C53.4236 19.528 53.1116 20.328 52.8236 21H50.0396C49.6396 19.784 49.2476 18.576 48.8636 17.376C48.4796 16.176 48.1276 14.968 47.8076 13.752ZM64.3239 4.176C66.8039 4.176 68.7079 4.616 70.0359 5.496C71.3639 6.36 72.0279 7.784 72.0279 9.768C72.0279 11.768 71.3559 13.216 70.0119 14.112C68.6679 14.992 66.7479 15.432 64.2519 15.432H63.0759V21H59.3319V4.608C60.1479 4.448 61.0119 4.336 61.9239 4.272C62.8359 4.208 63.6359 4.176 64.3239 4.176ZM64.5639 7.368C64.2919 7.368 64.0199 7.376 63.7479 7.392C63.4919 7.408 63.2679 7.424 63.0759 7.44V12.24H64.2519C65.5479 12.24 66.5239 12.064 67.1799 11.712C67.8359 11.36 68.1639 10.704 68.1639 9.744C68.1639 9.28 68.0759 8.896 67.8999 8.592C67.7399 8.288 67.4999 8.048 67.1799 7.872C66.8759 7.68 66.4999 7.552 66.0519 7.488C65.6039 7.408 65.1079 7.368 64.5639 7.368ZM79.0365 18.504C79.3885 18.504 79.7245 18.496 80.0445 18.48C80.3645 18.464 80.6205 18.44 80.8125 18.408V15.696C80.6685 15.664 80.4525 15.632 80.1645 15.6C79.8765 15.568 79.6125 15.552 79.3725 15.552C79.0365 15.552 78.7165 15.576 78.4125 15.624C78.1245 15.656 77.8685 15.728 77.6445 15.84C77.4205 15.952 77.2445 16.104 77.1165 16.296C76.9885 16.488 76.9245 16.728 76.9245 17.016C76.9245 17.576 77.1085 17.968 77.4765 18.192C77.8605 18.4 78.3805 18.504 79.0365 18.504ZM78.7485 8.04C79.8045 8.04 80.6845 8.16 81.3885 8.4C82.0925 8.64 82.6525 8.984 83.0685 9.432C83.5005 9.88 83.8045 10.424 83.9805 11.064C84.1565 11.704 84.2445 12.416 84.2445 13.2V20.64C83.7325 20.752 83.0205 20.88 82.1085 21.024C81.1965 21.184 80.0925 21.264 78.7965 21.264C77.9805 21.264 77.2365 21.192 76.5645 21.048C75.9085 20.904 75.3405 20.672 74.8605 20.352C74.3805 20.016 74.0125 19.584 73.7565 19.056C73.5005 18.528 73.3725 17.88 73.3725 17.112C73.3725 16.376 73.5165 15.752 73.8045 15.24C74.1085 14.728 74.5085 14.32 75.0045 14.016C75.5005 13.712 76.0685 13.496 76.7085 13.368C77.3485 13.224 78.0125 13.152 78.7005 13.152C79.1645 13.152 79.5725 13.176 79.9245 13.224C80.2925 13.256 80.5885 13.304 80.8125 13.368V13.032C80.8125 12.424 80.6285 11.936 80.2605 11.568C79.8925 11.2 79.2525 11.016 78.3405 11.016C77.7325 11.016 77.1325 11.064 76.5405 11.16C75.9485 11.24 75.4365 11.36 75.0045 11.52L74.5485 8.64C74.7565 8.576 75.0125 8.512 75.3165 8.448C75.6365 8.368 75.9805 8.304 76.3485 8.256C76.7165 8.192 77.1005 8.144 77.5005 8.112C77.9165 8.064 78.3325 8.04 78.7485 8.04ZM98.5254 8.376C97.8054 10.808 97.0534 13.088 96.2694 15.216C95.4854 17.344 94.6294 19.408 93.7014 21.408C93.3654 22.128 93.0294 22.736 92.6934 23.232C92.3574 23.744 91.9894 24.16 91.5894 24.48C91.1894 24.816 90.7334 25.056 90.2214 25.2C89.7254 25.36 89.1414 25.44 88.4694 25.44C87.9094 25.44 87.3894 25.384 86.9094 25.272C86.4454 25.176 86.0614 25.064 85.7574 24.936L86.3814 22.08C86.7494 22.208 87.0774 22.296 87.3654 22.344C87.6534 22.392 87.9574 22.416 88.2774 22.416C88.9174 22.416 89.4054 22.24 89.7414 21.888C90.0934 21.552 90.3894 21.08 90.6294 20.472C89.8134 18.872 88.9974 17.08 88.1814 15.096C87.3654 13.096 86.5974 10.856 85.8774 8.376H89.6694C89.8294 9 90.0134 9.68 90.2214 10.416C90.4454 11.136 90.6774 11.872 90.9174 12.624C91.1574 13.36 91.3974 14.08 91.6374 14.784C91.8934 15.488 92.1334 16.128 92.3574 16.704C92.5654 16.128 92.7814 15.488 93.0054 14.784C93.2294 14.08 93.4454 13.36 93.6534 12.624C93.8774 11.872 94.0854 11.136 94.2774 10.416C94.4854 9.68 94.6694 9 94.8294 8.376H98.5254Z" fill="#222222"/>
</svg>
