<svg width="169" height="104" viewBox="0 0 169 104" fill="none" xmlns="http://www.w3.org/2000/svg">
<path d="M58.454 57.2692L55.6341 57.9354L44.3641 53.6435L41.3641 54.5499C38.9541 55.3362 36.6141 55.3908 35.4941 55.0414L35.264 55.1014C33.524 55.5164 32.494 55.1451 32.144 54.6973C31.794 54.2496 31.9941 53.6053 33.7341 53.1793L33.9641 53.1247C34.174 52.5787 35.0841 51.6614 38.6341 51.1208L41.9041 50.5474L43.9041 43.1267L46.7241 42.4551L48.9141 49.3298L56.9741 47.8227L58.1941 46.0589L60.4341 45.6057L60.5941 47.2439L61.394 47.2056L62.1241 48.1175L61.524 48.4397L63.644 49.641L61.5041 50.2253L58.3241 49.5045L50.7941 51.6887L58.454 57.2692ZM58.2441 49.1059L61.4441 49.8321L62.4441 49.5482L60.5041 48.4561L61.2341 48.052L60.894 47.6206L59.894 47.6698L59.7441 46.1409L58.6541 46.3593L57.4341 48.1285L48.3141 49.8267L46.144 42.9957L44.454 43.3943L42.5041 50.8423L38.8141 51.4866C35.3741 52.0054 34.6941 52.8463 34.5941 53.2995V53.4141L34.394 53.4524C34.267 53.4721 34.1432 53.4977 34.024 53.5288C32.954 53.78 32.4741 54.1786 32.7841 54.5608C33.0941 54.9431 33.944 55.0304 35.014 54.7738C35.1344 54.7472 35.2514 54.7162 35.3641 54.681L35.5541 54.6209L35.7341 54.6919C36.4641 54.9868 38.5941 55.0414 41.0541 54.2441L44.4141 53.2176L55.7141 57.5258L57.4041 57.1272L49.7441 51.5904L58.2441 49.1059Z" fill="#999999"/>
<path d="M155.234 103.098C155.288 103.099 155.342 103.091 155.389 103.077C155.437 103.063 155.476 103.042 155.504 103.016C155.864 102.718 156.198 102.418 156.504 102.115C156.55 102.075 156.565 102.027 156.546 101.981C156.527 101.936 156.476 101.895 156.404 101.87C156.33 101.845 156.241 101.838 156.157 101.849C156.073 101.861 156 101.889 155.954 101.93C155.614 102.23 155.274 102.525 154.954 102.825C154.93 102.845 154.913 102.866 154.905 102.889C154.896 102.912 154.896 102.936 154.904 102.959C154.913 102.981 154.929 103.003 154.953 103.023C154.977 103.042 155.008 103.058 155.044 103.071C155.103 103.088 155.168 103.098 155.234 103.098ZM157.234 101.285C157.291 101.285 157.346 101.277 157.395 101.262C157.444 101.246 157.485 101.224 157.514 101.198C157.834 100.887 158.154 100.576 158.514 100.264C158.555 100.224 158.565 100.176 158.543 100.131C158.52 100.086 158.467 100.048 158.394 100.024C158.318 100.002 158.23 99.9977 158.148 100.011C158.066 100.024 157.996 100.054 157.954 100.095C157.644 100.406 157.324 100.712 157.004 101.018C156.96 101.059 156.946 101.107 156.967 101.153C156.988 101.199 157.041 101.239 157.114 101.264C157.166 101.279 157.225 101.287 157.284 101.285H157.234ZM159.094 99.418C159.154 99.4176 159.213 99.4082 159.264 99.3909C159.315 99.3736 159.357 99.3489 159.384 99.3197C159.684 99.003 159.974 98.6808 160.254 98.3641C160.273 98.3433 160.284 98.3208 160.286 98.2977C160.289 98.2746 160.283 98.2514 160.269 98.2296C160.255 98.2078 160.233 98.1876 160.205 98.1704C160.177 98.1532 160.143 98.1392 160.104 98.1293C160.066 98.1191 160.025 98.1132 159.983 98.1118C159.94 98.1104 159.898 98.1136 159.858 98.1212C159.818 98.1288 159.781 98.1407 159.75 98.1562C159.718 98.1716 159.692 98.1903 159.674 98.2112C159.394 98.5279 159.104 98.8446 158.804 99.1613C158.786 99.1821 158.775 99.2047 158.772 99.2278C158.77 99.2509 158.775 99.274 158.789 99.2958C158.803 99.3177 158.825 99.3378 158.853 99.355C158.882 99.3722 158.916 99.3862 158.954 99.3961C158.981 99.4071 159.012 99.4148 159.045 99.4185C159.078 99.4223 159.112 99.4221 159.144 99.418H159.094ZM160.784 97.4959C160.847 97.4954 160.908 97.4854 160.961 97.4671C161.014 97.4488 161.057 97.4229 161.084 97.3922L161.864 96.4147C161.897 96.3706 161.897 96.321 161.863 96.277C161.829 96.233 161.765 96.1981 161.684 96.1799C161.605 96.1636 161.516 96.1646 161.438 96.183C161.36 96.2013 161.298 96.2354 161.264 96.2782C161.014 96.6004 160.754 96.9226 160.494 97.2502C160.476 97.2709 160.466 97.2934 160.464 97.3163C160.462 97.3393 160.469 97.3622 160.484 97.3836C160.499 97.4051 160.522 97.4246 160.551 97.4411C160.58 97.4576 160.615 97.4707 160.654 97.4795C160.71 97.4947 160.773 97.5004 160.834 97.4959H160.784ZM162.294 95.5356C162.358 95.5353 162.421 95.5247 162.474 95.5054C162.527 95.486 162.569 95.4585 162.594 95.4264C162.834 95.0879 163.064 94.7548 163.294 94.4217C163.308 94.3998 163.314 94.3766 163.312 94.3535C163.31 94.3304 163.299 94.3077 163.28 94.2869C163.262 94.266 163.236 94.2474 163.204 94.2321C163.172 94.2168 163.135 94.2052 163.094 94.1978C163.015 94.1834 162.928 94.1861 162.852 94.2053C162.775 94.2246 162.716 94.259 162.684 94.3015C162.464 94.6346 162.234 94.9623 161.994 95.2953C161.964 95.3389 161.966 95.387 162 95.4298C162.033 95.4725 162.096 95.5065 162.174 95.5247L162.294 95.5356ZM163.634 93.5371C163.701 93.5366 163.766 93.5248 163.82 93.5033C163.873 93.4817 163.913 93.4516 163.934 93.417C164.154 93.0784 164.354 92.7399 164.544 92.4013C164.57 92.3564 164.562 92.3079 164.523 92.2661C164.483 92.2242 164.416 92.1924 164.334 92.1774C164.252 92.1636 164.163 92.1678 164.087 92.1893C164.01 92.2107 163.952 92.2476 163.924 92.2921C163.734 92.6307 163.534 92.9638 163.324 93.3023C163.299 93.3472 163.307 93.3957 163.346 93.4375C163.385 93.4794 163.453 93.5112 163.534 93.5262L163.634 93.5371ZM164.794 91.5058C164.865 91.5049 164.933 91.4917 164.989 91.4682C165.045 91.4446 165.085 91.4118 165.104 91.3748C165.284 91.0308 165.464 90.6868 165.624 90.3482C165.646 90.3026 165.634 90.2542 165.591 90.2134C165.548 90.1726 165.477 90.1426 165.394 90.1298C165.354 90.124 165.311 90.1227 165.27 90.1259C165.228 90.1291 165.188 90.1368 165.152 90.1484C165.115 90.1601 165.084 90.1756 165.058 90.1939C165.033 90.2123 165.015 90.2331 165.004 90.2554C164.834 90.5939 164.664 90.9379 164.484 91.2765C164.472 91.2987 164.468 91.322 164.473 91.3451C164.477 91.3682 164.49 91.3905 164.51 91.4109C164.531 91.4312 164.559 91.4491 164.592 91.4635C164.625 91.478 164.663 91.4886 164.704 91.4949L164.794 91.5058ZM165.794 89.4472C165.866 89.446 165.935 89.432 165.991 89.4074C166.047 89.3828 166.087 89.3488 166.104 89.3107C166.254 88.9613 166.404 88.6118 166.534 88.2678C166.545 88.2455 166.546 88.2224 166.54 88.1997C166.533 88.177 166.518 88.1553 166.496 88.1359C166.473 88.1165 166.444 88.0998 166.409 88.0868C166.375 88.0738 166.336 88.0648 166.294 88.0603C166.253 88.0546 166.21 88.0535 166.168 88.0571C166.126 88.0606 166.085 88.0687 166.049 88.081C166.012 88.0932 165.981 88.1092 165.956 88.1282C165.931 88.1471 165.914 88.1686 165.904 88.1913C165.774 88.5353 165.624 88.8793 165.474 89.2288C165.456 89.2744 165.471 89.322 165.516 89.3617C165.56 89.4014 165.632 89.4301 165.714 89.4418L165.794 89.4472ZM166.614 87.3614C166.69 87.3621 166.763 87.3482 166.822 87.3223C166.88 87.2963 166.92 87.2598 166.934 87.2194C167.054 86.8699 167.174 86.5204 167.284 86.171C167.299 86.1254 167.28 86.0785 167.231 86.0406C167.182 86.0027 167.108 85.9769 167.024 85.9689C166.982 85.9642 166.939 85.9642 166.897 85.9688C166.855 85.9734 166.815 85.9826 166.779 85.9959C166.744 86.0091 166.713 86.0261 166.69 86.0459C166.667 86.0657 166.651 86.0878 166.644 86.1109C166.534 86.4549 166.424 86.8044 166.294 87.1539C166.286 87.1768 166.285 87.2005 166.294 87.2235C166.302 87.2465 166.319 87.2684 166.344 87.2877C166.368 87.3071 166.399 87.3236 166.435 87.3362C166.471 87.3489 166.512 87.3574 166.554 87.3614H166.614ZM167.274 85.2645C167.352 85.2663 167.427 85.2521 167.487 85.2248C167.546 85.1975 167.584 85.1591 167.594 85.1171C167.694 84.7622 167.784 84.4073 167.864 84.0578C167.87 84.0348 167.867 84.0115 167.856 83.9891C167.845 83.9667 167.826 83.9458 167.8 83.9275C167.774 83.9092 167.741 83.8939 167.704 83.8825C167.667 83.8712 167.626 83.8639 167.584 83.8612C167.542 83.8574 167.499 83.8583 167.457 83.8641C167.416 83.8698 167.377 83.8802 167.343 83.8946C167.309 83.9089 167.281 83.927 167.261 83.9475C167.24 83.9681 167.228 83.9908 167.224 84.0141C167.144 84.3563 167.054 84.7058 166.954 85.0625C166.943 85.1087 166.964 85.1556 167.015 85.1933C167.065 85.2309 167.14 85.2565 167.224 85.2645H167.274ZM167.764 83.1514C167.845 83.1529 167.923 83.1372 167.983 83.1076C168.043 83.0781 168.079 83.0369 168.084 82.993C168.154 82.6381 168.224 82.2832 168.274 81.9337C168.28 81.8868 168.252 81.8405 168.196 81.8048C168.139 81.7691 168.06 81.7467 167.974 81.7426C167.932 81.7395 167.89 81.7413 167.85 81.7478C167.809 81.7543 167.772 81.7653 167.74 81.7803C167.707 81.7952 167.681 81.8137 167.663 81.8345C167.645 81.8553 167.635 81.8779 167.634 81.9009C167.574 82.2504 167.514 82.6053 167.444 82.9602C167.44 82.9832 167.444 83.0064 167.457 83.0285C167.469 83.0505 167.489 83.071 167.516 83.0888C167.543 83.1066 167.576 83.1213 167.614 83.132C167.651 83.1427 167.692 83.1493 167.734 83.1514H167.764ZM168.094 81.0327C168.176 81.0328 168.254 81.0159 168.314 80.9855C168.373 80.955 168.409 80.9133 168.414 80.8689C168.414 80.5031 168.494 80.1481 168.514 79.7768C168.517 79.7534 168.511 79.73 168.497 79.7079C168.483 79.6857 168.46 79.6654 168.431 79.6481C168.402 79.6308 168.367 79.6168 168.328 79.607C168.289 79.5972 168.247 79.5919 168.204 79.5912C168.12 79.5933 168.04 79.6114 167.978 79.6423C167.916 79.6732 167.876 79.715 167.864 79.7604C167.864 80.1099 167.864 80.4648 167.774 80.8198C167.769 80.8667 167.797 80.9129 167.853 80.9487C167.909 80.9844 167.989 81.0067 168.074 81.0109L168.094 81.0327ZM168.244 78.9031C168.329 78.9031 168.411 78.8847 168.471 78.852C168.531 78.8192 168.564 78.7748 168.564 78.7284C168.564 78.4772 168.564 78.2315 168.564 77.9858V77.6636C168.564 77.6173 168.531 77.5728 168.471 77.5401C168.411 77.5073 168.329 77.4889 168.244 77.4889C168.159 77.4889 168.078 77.5073 168.018 77.5401C167.958 77.5728 167.924 77.6173 167.924 77.6636V77.9858C167.924 78.2315 167.924 78.4772 167.924 78.723C167.923 78.7464 167.93 78.7697 167.946 78.7915C167.961 78.8133 167.985 78.8332 168.014 78.8501C168.044 78.8669 168.08 78.8802 168.119 78.8894C168.159 78.8985 168.201 78.9032 168.244 78.9031ZM168.244 76.7736C168.287 76.7736 168.33 76.7689 168.369 76.7598C168.409 76.7507 168.444 76.7373 168.474 76.7205C168.504 76.7037 168.527 76.6838 168.543 76.6619C168.558 76.6401 168.566 76.6168 168.564 76.5934C168.564 76.2275 168.504 75.8726 168.474 75.5013C168.467 75.4545 168.426 75.4111 168.36 75.3805C168.295 75.3499 168.21 75.3345 168.124 75.3375C168.082 75.3389 168.041 75.3448 168.003 75.3549C167.965 75.365 167.932 75.379 167.904 75.3963C167.876 75.4135 167.854 75.4336 167.841 75.4554C167.827 75.4772 167.822 75.5002 167.824 75.5231C167.824 75.8671 167.894 76.2221 167.914 76.5825C167.91 76.6082 167.915 76.6342 167.931 76.6585C167.947 76.6829 167.973 76.705 168.006 76.7233C168.04 76.7415 168.08 76.7555 168.125 76.7642C168.17 76.7729 168.217 76.7761 168.264 76.7736H168.244ZM168.014 74.6495C168.056 74.6474 168.097 74.6408 168.135 74.6301C168.172 74.6194 168.205 74.6047 168.232 74.5869C168.259 74.5692 168.279 74.5486 168.292 74.5266C168.304 74.5045 168.308 74.4813 168.304 74.4584C168.244 74.0943 168.174 73.7303 168.094 73.3663C168.091 73.343 168.078 73.3203 168.058 73.2997C168.038 73.2791 168.01 73.2611 167.976 73.2467C167.942 73.2324 167.903 73.222 167.861 73.2162C167.82 73.2105 167.777 73.2095 167.734 73.2134C167.65 73.2202 167.574 73.2444 167.522 73.281C167.47 73.3176 167.446 73.3638 167.454 73.41C167.534 73.743 167.604 74.098 167.664 74.4638C167.66 74.4907 167.668 74.5177 167.686 74.5428C167.704 74.5678 167.733 74.5902 167.77 74.6082C167.807 74.6262 167.851 74.6392 167.898 74.6464C167.946 74.6536 167.996 74.6546 168.044 74.6495H168.014ZM167.534 72.5363C167.618 72.5283 167.692 72.5025 167.741 72.4647C167.79 72.4268 167.809 72.3799 167.794 72.3343L167.734 72.1213C167.644 71.8428 167.544 71.5753 167.444 71.2804C167.436 71.2578 167.419 71.2362 167.396 71.2171C167.372 71.1979 167.342 71.1816 167.306 71.1689C167.271 71.1562 167.231 71.1474 167.19 71.1431C167.148 71.1388 167.106 71.1391 167.064 71.1439C167.022 71.1477 166.982 71.1563 166.946 71.169C166.91 71.1817 166.88 71.1983 166.856 71.2178C166.833 71.2373 166.817 71.2592 166.81 71.2822C166.802 71.3052 166.804 71.3287 166.814 71.3514C166.914 71.6299 167.004 71.8974 167.094 72.1814L167.164 72.3889C167.169 72.4134 167.183 72.4372 167.205 72.4585C167.228 72.4798 167.259 72.4981 167.296 72.5121C167.334 72.5262 167.376 72.5356 167.42 72.5398C167.465 72.544 167.511 72.5428 167.554 72.5363H167.534ZM166.764 70.4504H166.834C166.875 70.4459 166.915 70.4369 166.949 70.4239C166.984 70.4109 167.013 70.3942 167.036 70.3748C167.058 70.3554 167.073 70.3337 167.08 70.311C167.086 70.2883 167.085 70.2652 167.074 70.2429C166.924 69.8934 166.774 69.5494 166.604 69.2C166.593 69.1776 166.573 69.1568 166.547 69.1386C166.52 69.1204 166.488 69.1053 166.45 69.0941C166.413 69.0829 166.372 69.0759 166.33 69.0735C166.288 69.071 166.245 69.0732 166.204 69.0798C166.164 69.0856 166.125 69.0956 166.092 69.1094C166.058 69.1232 166.03 69.1405 166.008 69.1603C165.987 69.1801 165.973 69.202 165.967 69.2247C165.961 69.2474 165.964 69.2706 165.974 69.2928C166.144 69.6368 166.304 69.9753 166.444 70.3194C166.465 70.3592 166.51 70.394 166.572 70.4178C166.634 70.4417 166.709 70.4532 166.784 70.4504H166.764ZM165.764 68.3973H165.854C165.895 68.391 165.933 68.3804 165.967 68.3659C166 68.3515 166.028 68.3336 166.048 68.3133C166.069 68.2929 166.081 68.2706 166.086 68.2475C166.09 68.2244 166.087 68.2011 166.074 68.1789C165.884 67.8349 165.684 67.4963 165.474 67.1578C165.461 67.1358 165.439 67.1155 165.411 67.0981C165.383 67.0807 165.349 67.0664 165.311 67.0563C165.273 67.0461 165.232 67.0402 165.189 67.0389C165.147 67.0375 165.104 67.0408 165.064 67.0486C165.024 67.0559 164.987 67.0676 164.955 67.0829C164.923 67.0982 164.897 67.1168 164.878 67.1376C164.86 67.1585 164.849 67.1811 164.847 67.2043C164.844 67.2274 164.85 67.2506 164.864 67.2724C165.074 67.6055 165.264 67.9441 165.454 68.2826C165.478 68.318 165.522 68.3483 165.579 68.369C165.637 68.3896 165.705 68.3996 165.774 68.3973H165.764ZM164.514 66.3769C164.55 66.382 164.588 66.382 164.624 66.3769C164.704 66.3609 164.768 66.3284 164.804 66.2864C164.84 66.2445 164.843 66.1965 164.814 66.1531C164.584 65.82 164.344 65.4869 164.084 65.1593C164.069 65.1376 164.046 65.1178 164.016 65.1011C163.987 65.0844 163.951 65.0711 163.912 65.062C163.873 65.0528 163.831 65.048 163.788 65.0478C163.746 65.0477 163.704 65.0521 163.664 65.061C163.625 65.0699 163.59 65.0829 163.561 65.0993C163.531 65.1157 163.508 65.1351 163.492 65.1564C163.476 65.1777 163.468 65.2005 163.469 65.2235C163.469 65.2464 163.478 65.2692 163.494 65.2903C163.744 65.6179 163.984 65.9456 164.204 66.2786C164.234 66.3105 164.28 66.3368 164.337 66.3543C164.394 66.3718 164.459 66.3797 164.524 66.3769H164.514ZM163.044 64.4439C163.09 64.4491 163.138 64.4491 163.184 64.4439C163.262 64.4238 163.321 64.388 163.351 64.3442C163.381 64.3004 163.379 64.252 163.344 64.2091C163.064 63.887 162.784 63.5648 162.484 63.2426C162.444 63.2024 162.377 63.1721 162.297 63.1579C162.217 63.1437 162.13 63.1467 162.054 63.1662C161.976 63.1873 161.917 63.2245 161.889 63.2695C161.861 63.3145 161.866 63.3637 161.904 63.4065C162.204 63.7177 162.484 64.0344 162.754 64.3566C162.783 64.3846 162.825 64.4077 162.876 64.4232C162.927 64.4386 162.986 64.4458 163.044 64.4439ZM161.284 62.5437C161.333 62.5512 161.385 62.5512 161.434 62.5437C161.472 62.5328 161.506 62.5179 161.533 62.4999C161.56 62.4818 161.58 62.461 161.592 62.4386C161.604 62.4162 161.608 62.3927 161.603 62.3695C161.599 62.3463 161.585 62.3238 161.564 62.3035C161.244 61.9922 160.914 61.681 160.564 61.3806C160.544 61.3603 160.516 61.3425 160.482 61.3284C160.448 61.3142 160.409 61.304 160.368 61.2984C160.327 61.2927 160.284 61.2918 160.242 61.2956C160.2 61.2994 160.16 61.3079 160.124 61.3206C160.088 61.3324 160.057 61.348 160.031 61.3664C160.006 61.3849 159.988 61.4059 159.978 61.4282C159.968 61.4506 159.966 61.4738 159.972 61.4965C159.978 61.5193 159.992 61.5411 160.014 61.5608C160.354 61.8612 160.674 62.1669 161.014 62.4782C161.047 62.4933 161.086 62.5045 161.127 62.5111C161.168 62.5177 161.212 62.5195 161.254 62.5164L161.284 62.5437ZM159.284 60.7254C159.343 60.7351 159.406 60.7351 159.464 60.7254C159.5 60.7127 159.531 60.6962 159.555 60.6769C159.579 60.6576 159.596 60.6358 159.604 60.6129C159.613 60.59 159.613 60.5664 159.604 60.5435C159.595 60.5206 159.579 60.4989 159.554 60.4797C159.184 60.1848 158.814 59.8899 158.424 59.6005C158.373 59.5638 158.297 59.5394 158.213 59.5322C158.129 59.5251 158.044 59.5359 157.974 59.5623C157.907 59.5905 157.862 59.6318 157.849 59.6775C157.836 59.7233 157.856 59.77 157.904 59.808C158.284 60.092 158.654 60.3814 159.014 60.6763C159.078 60.6965 159.152 60.7042 159.224 60.6981L159.284 60.7254ZM115.284 59.5186H115.694C115.736 59.5172 115.777 59.5113 115.815 59.5012C115.853 59.4912 115.887 59.4771 115.915 59.4598C115.943 59.4426 115.964 59.4225 115.978 59.4007C115.991 59.379 115.997 59.3559 115.994 59.333C115.993 59.3098 115.983 59.2869 115.965 59.2659C115.947 59.2449 115.921 59.2261 115.889 59.2107C115.858 59.1953 115.82 59.1837 115.78 59.1766C115.739 59.1694 115.697 59.1669 115.654 59.1692C115.272 59.1883 114.887 59.1883 114.504 59.1692C114.275 59.1534 114.048 59.1297 113.824 59.0982C113.741 59.0864 113.652 59.093 113.577 59.1165C113.503 59.1399 113.448 59.1785 113.424 59.2238C113.414 59.2464 113.412 59.2699 113.418 59.2929C113.425 59.3159 113.44 59.338 113.462 59.3579C113.484 59.3777 113.514 59.3949 113.549 59.4084C113.583 59.422 113.623 59.4316 113.664 59.4367C113.917 59.475 114.174 59.5024 114.434 59.5186C114.682 59.516 114.929 59.5069 115.174 59.4913L115.284 59.5186ZM117.584 59.3057H117.684C118.334 59.1811 118.939 58.9964 119.474 58.7596C119.534 58.726 119.568 58.681 119.568 58.634C119.568 58.5871 119.534 58.5421 119.474 58.5085C119.444 58.4916 119.409 58.4782 119.369 58.4691C119.33 58.4599 119.287 58.4552 119.244 58.4552C119.201 58.4552 119.159 58.4599 119.119 58.4691C119.08 58.4782 119.044 58.4916 119.014 58.5085C118.536 58.7168 117.999 58.881 117.424 58.9944C117.384 59.0018 117.347 59.0135 117.315 59.0288C117.283 59.0441 117.257 59.0627 117.238 59.0835C117.22 59.1043 117.209 59.127 117.207 59.1501C117.204 59.1733 117.21 59.1965 117.224 59.2183C117.256 59.2375 117.294 59.2528 117.337 59.2631C117.38 59.2735 117.427 59.2787 117.474 59.2784L117.584 59.3057ZM157.034 59.0108C157.107 59.0113 157.178 58.9978 157.234 58.9726C157.294 58.939 157.328 58.8939 157.328 58.847C157.328 58.8001 157.294 58.7551 157.234 58.7214C156.824 58.4429 156.394 58.1754 155.974 57.9024C155.913 57.8697 155.83 57.8514 155.744 57.8514C155.658 57.8514 155.576 57.8697 155.514 57.9024C155.454 57.936 155.421 57.981 155.421 58.0279C155.421 58.0748 155.454 58.1199 155.514 58.1535C155.934 58.4156 156.354 58.6996 156.754 58.9617C156.807 58.9769 156.865 58.9844 156.924 58.9835L157.034 59.0108ZM111.974 58.9835C112.027 58.9827 112.079 58.9754 112.125 58.9621C112.172 58.9489 112.213 58.9301 112.244 58.9071C112.29 58.8671 112.305 58.819 112.286 58.7731C112.267 58.7272 112.216 58.6871 112.144 58.6614C111.628 58.4743 111.161 58.2502 110.754 57.9952C110.694 57.9628 110.614 57.9447 110.529 57.9447C110.445 57.9447 110.364 57.9628 110.304 57.9952C110.244 58.0288 110.211 58.0739 110.211 58.1208C110.211 58.1677 110.244 58.2127 110.304 58.2464C110.748 58.5288 111.263 58.7752 111.834 58.9781C111.844 58.9802 111.854 58.982 111.864 58.9835H111.974ZM120.504 57.9733C120.562 57.9725 120.618 57.9635 120.667 57.9472C120.716 57.9309 120.756 57.9079 120.784 57.8805C121.114 57.5405 121.328 57.1704 121.414 56.7884C121.42 56.7655 121.417 56.7421 121.406 56.7197C121.395 56.6974 121.376 56.6764 121.35 56.6581C121.324 56.6398 121.291 56.6246 121.254 56.6132C121.217 56.6018 121.176 56.5945 121.134 56.5918C121.051 56.5856 120.966 56.5976 120.899 56.6252C120.831 56.6528 120.787 56.6938 120.774 56.7393C120.691 57.0708 120.505 57.3921 120.224 57.6894C120.203 57.7098 120.19 57.7322 120.185 57.7554C120.18 57.7786 120.184 57.8021 120.196 57.8245C120.208 57.8469 120.229 57.8678 120.256 57.8858C120.283 57.9039 120.316 57.9188 120.354 57.9297C120.367 57.9355 120.38 57.941 120.394 57.946L120.504 57.9733ZM154.454 57.4273C154.54 57.4278 154.622 57.4102 154.684 57.3781C154.744 57.3445 154.778 57.2995 154.778 57.2526C154.778 57.2057 154.744 57.1606 154.684 57.127C154.224 56.8703 153.754 56.6192 153.284 56.3734C153.223 56.3407 153.14 56.3225 153.054 56.3225C152.968 56.3225 152.886 56.3407 152.824 56.3734C152.765 56.4061 152.732 56.4503 152.732 56.4963C152.732 56.5423 152.765 56.5864 152.824 56.6192C153.284 56.8594 153.744 57.1106 154.194 57.3618C154.24 57.3761 154.292 57.3836 154.344 57.3836L154.454 57.4273ZM109.454 57.4273C109.504 57.4325 109.555 57.4325 109.604 57.4273C109.679 57.4042 109.734 57.3667 109.76 57.3221C109.786 57.2776 109.781 57.2294 109.744 57.187C109.463 56.8831 109.258 56.5599 109.134 56.226C109.125 56.2033 109.107 56.1818 109.082 56.1629C109.058 56.1439 109.026 56.1278 108.99 56.1156C108.953 56.1034 108.913 56.0953 108.871 56.0917C108.829 56.0882 108.786 56.0893 108.744 56.0949C108.703 56.0995 108.663 56.1085 108.628 56.1214C108.593 56.1343 108.563 56.1509 108.54 56.1702C108.517 56.1895 108.501 56.2111 108.493 56.2338C108.485 56.2565 108.486 56.2798 108.494 56.3024C108.639 56.6636 108.864 57.0139 109.164 57.3454C109.212 57.3619 109.268 57.3713 109.324 57.3727L109.454 57.4273ZM151.644 55.9803C151.69 55.9802 151.735 55.9748 151.776 55.9644C151.818 55.954 151.854 55.939 151.884 55.9202C151.944 55.8866 151.978 55.8415 151.978 55.7946C151.978 55.7477 151.944 55.7027 151.884 55.669L151.284 55.396L150.354 54.9974C150.285 54.9687 150.198 54.9561 150.112 54.9622C150.026 54.9683 149.948 54.9928 149.894 55.0302C149.845 55.0675 149.823 55.1138 149.835 55.1596C149.846 55.2053 149.889 55.2469 149.954 55.2759L150.874 55.669L151.464 55.9421C151.482 55.9375 151.499 55.932 151.514 55.9257L151.644 55.9803ZM121.124 55.9311C121.21 55.9256 121.289 55.902 121.343 55.8652C121.397 55.8285 121.423 55.7815 121.414 55.7346C121.338 55.3641 121.197 54.9984 120.994 54.6425C120.983 54.6201 120.963 54.5993 120.937 54.5811C120.91 54.5629 120.878 54.5478 120.84 54.5366C120.803 54.5254 120.762 54.5184 120.72 54.516C120.678 54.5135 120.635 54.5157 120.594 54.5223C120.553 54.5285 120.515 54.5392 120.483 54.5537C120.45 54.5683 120.422 54.5863 120.403 54.6068C120.383 54.6272 120.371 54.6497 120.368 54.6727C120.365 54.6958 120.37 54.7189 120.384 54.7408C120.566 55.071 120.696 55.4089 120.774 55.7509C120.788 55.7805 120.815 55.8077 120.854 55.8297C120.892 55.8518 120.941 55.8679 120.994 55.8765L121.124 55.9311ZM108.674 55.3851C108.756 55.3852 108.834 55.3683 108.894 55.3378C108.953 55.3074 108.989 55.2657 108.994 55.2213C109.04 54.8855 109.182 54.5558 109.414 54.2439C109.431 54.2227 109.439 54.2 109.44 54.177C109.44 54.154 109.432 54.1312 109.416 54.1099C109.401 54.0886 109.377 54.0692 109.348 54.0529C109.318 54.0365 109.283 54.0235 109.244 54.0145C109.206 54.0055 109.164 54.0008 109.122 54.0006C109.08 54.0004 109.038 54.0047 108.999 54.0134C108.96 54.022 108.924 54.0347 108.894 54.0509C108.865 54.067 108.841 54.0862 108.824 54.1074C108.559 54.4549 108.4 54.8238 108.354 55.1994C108.35 55.2228 108.355 55.2464 108.368 55.2688C108.381 55.2912 108.402 55.312 108.43 55.3298C108.458 55.3477 108.492 55.3622 108.531 55.3727C108.569 55.3831 108.611 55.3892 108.654 55.3906L108.674 55.3851ZM148.414 54.6152C148.467 54.6157 148.52 54.6089 148.567 54.5956C148.614 54.5822 148.654 54.5627 148.684 54.5387C148.732 54.5 148.75 54.4529 148.735 54.4071C148.72 54.3613 148.673 54.3204 148.604 54.293C148.064 54.091 147.504 53.8944 146.954 53.7087C146.88 53.6845 146.791 53.6772 146.707 53.6884C146.623 53.6997 146.55 53.7285 146.504 53.7688C146.483 53.7885 146.468 53.8104 146.462 53.8331C146.456 53.8559 146.458 53.8791 146.468 53.9014C146.478 53.9237 146.496 53.9447 146.521 53.9632C146.547 53.9817 146.578 53.9973 146.614 54.0091C147.161 54.1947 147.701 54.3858 148.234 54.5824C148.287 54.603 148.35 54.6144 148.414 54.6152ZM119.914 53.8234C119.957 53.829 120.002 53.829 120.044 53.8234C120.123 53.8042 120.185 53.7689 120.217 53.725C120.249 53.6811 120.248 53.6321 120.214 53.5886C119.964 53.2774 119.674 52.9497 119.344 52.6221C119.324 52.6015 119.297 52.5832 119.264 52.5683C119.231 52.5535 119.193 52.5425 119.152 52.5359C119.111 52.5293 119.068 52.5272 119.025 52.5298C118.983 52.5324 118.942 52.5397 118.904 52.5511C118.83 52.5742 118.775 52.6121 118.75 52.6569C118.726 52.7017 118.735 52.75 118.774 52.7914C119.094 53.1081 119.384 53.4248 119.624 53.7306C119.648 53.7623 119.688 53.7895 119.739 53.8089C119.791 53.8284 119.852 53.8391 119.914 53.8398V53.8234ZM145.044 53.5231C145.104 53.5238 145.162 53.5155 145.213 53.4991C145.265 53.4827 145.306 53.4589 145.334 53.4303C145.374 53.3888 145.382 53.3406 145.358 53.2958C145.334 53.2509 145.279 53.213 145.204 53.19C144.634 53.0207 144.044 52.8569 143.454 52.6986C143.416 52.6884 143.375 52.6824 143.333 52.681C143.29 52.6796 143.248 52.6828 143.208 52.6905C143.168 52.6981 143.131 52.71 143.1 52.7254C143.068 52.7409 143.042 52.7596 143.024 52.7805C143.006 52.8012 142.995 52.8238 142.992 52.8469C142.99 52.87 142.995 52.8931 143.009 52.915C143.023 52.9368 143.045 52.9569 143.073 52.9741C143.102 52.9914 143.136 53.0053 143.174 53.0153C143.754 53.1682 144.334 53.332 144.894 53.5012C144.939 53.5161 144.992 53.5237 145.044 53.5231ZM109.964 53.3866C110.012 53.3862 110.059 53.3802 110.103 53.3688C110.146 53.3575 110.184 53.3412 110.214 53.3211C110.619 53.0628 111.075 52.8302 111.574 52.6276C111.61 52.6145 111.64 52.5977 111.663 52.5779C111.686 52.5582 111.701 52.5362 111.708 52.5131C111.714 52.49 111.712 52.4664 111.701 52.4439C111.69 52.4213 111.671 52.4002 111.644 52.3819C111.62 52.3625 111.589 52.346 111.553 52.3335C111.517 52.3209 111.477 52.3126 111.435 52.309C111.392 52.3054 111.349 52.3066 111.308 52.3126C111.266 52.3186 111.228 52.3291 111.194 52.3436C110.65 52.5632 110.153 52.8161 109.714 53.0972C109.657 53.1305 109.626 53.1744 109.626 53.22C109.626 53.2656 109.657 53.3095 109.714 53.3429C109.758 53.3644 109.812 53.3792 109.87 53.3859C109.928 53.3926 109.988 53.391 110.044 53.3811L109.964 53.3866ZM141.544 52.5948C141.608 52.5932 141.669 52.5822 141.722 52.5629C141.775 52.5437 141.817 52.517 141.844 52.4856C141.861 52.4645 141.869 52.4417 141.87 52.4188C141.87 52.3958 141.862 52.373 141.846 52.3517C141.831 52.3304 141.807 52.311 141.778 52.2946C141.748 52.2782 141.713 52.2652 141.674 52.2563C141.064 52.1143 140.454 51.9833 139.844 51.8577C139.763 51.8416 139.674 51.8435 139.596 51.8628C139.517 51.8822 139.456 51.9176 139.424 51.9614C139.395 52.0063 139.4 52.0556 139.438 52.0986C139.475 52.1416 139.542 52.1747 139.624 52.1907C140.224 52.3109 140.824 52.4419 141.414 52.5784C141.471 52.5918 141.534 52.5956 141.594 52.5894L141.544 52.5948ZM113.054 52.1143C113.1 52.1223 113.149 52.1223 113.194 52.1143C113.767 51.9635 114.354 51.8304 114.954 51.7157C114.995 51.7083 115.032 51.6967 115.064 51.6814C115.096 51.6661 115.122 51.6475 115.14 51.6266C115.159 51.6058 115.17 51.5831 115.172 51.56C115.174 51.5369 115.168 51.5137 115.154 51.4918C115.141 51.4698 115.119 51.4495 115.091 51.4321C115.063 51.4147 115.029 51.4005 114.991 51.3903C114.953 51.3801 114.912 51.3742 114.869 51.3729C114.827 51.3716 114.784 51.3749 114.744 51.3826C114.117 51.5018 113.503 51.6404 112.904 51.7976C112.828 51.8197 112.771 51.8572 112.745 51.9021C112.718 51.947 112.725 51.9958 112.764 52.0379C112.801 52.0671 112.853 52.0896 112.914 52.1023C112.975 52.115 113.041 52.1173 113.104 52.1088L113.054 52.1143ZM118.054 51.9669C118.115 51.9689 118.175 51.9593 118.224 51.9396C118.261 51.9279 118.292 51.9122 118.317 51.8936C118.342 51.8749 118.36 51.8537 118.369 51.8312C118.379 51.8087 118.379 51.7854 118.372 51.7627C118.364 51.74 118.348 51.7185 118.324 51.6993C118.164 51.5573 117.994 51.4208 117.824 51.2734L118.714 51.1751C118.798 51.1671 118.872 51.1413 118.921 51.1035C118.97 51.0656 118.989 51.0187 118.974 50.9731C118.967 50.9499 118.951 50.9278 118.928 50.9081C118.905 50.8883 118.875 50.8713 118.839 50.858C118.804 50.8448 118.764 50.8356 118.722 50.831C118.68 50.8263 118.636 50.8264 118.594 50.8311C118.204 50.8693 117.814 50.913 117.434 50.9621L117.234 50.8093C117.21 50.7901 117.179 50.7737 117.144 50.7611C117.108 50.7485 117.068 50.7399 117.026 50.7358C116.984 50.7317 116.941 50.7323 116.9 50.7374C116.858 50.7425 116.819 50.7521 116.784 50.7656C116.749 50.7787 116.719 50.7955 116.696 50.815C116.673 50.8345 116.657 50.8564 116.65 50.8793C116.642 50.9021 116.643 50.9256 116.653 50.9483C116.662 50.9709 116.68 50.9924 116.704 51.0113L116.754 51.0495H116.674C116.591 51.0623 116.519 51.0921 116.475 51.1327C116.43 51.1733 116.416 51.2217 116.434 51.2679C116.46 51.3125 116.515 51.3502 116.589 51.3734C116.663 51.3967 116.751 51.4039 116.834 51.3935L117.144 51.3553C117.374 51.53 117.584 51.7102 117.784 51.9013C117.816 51.9219 117.856 51.938 117.901 51.9485C117.946 51.9589 117.995 51.9634 118.044 51.9614L118.054 51.9669ZM137.914 51.8522C137.983 51.8538 138.051 51.8429 138.107 51.8211C138.163 51.7994 138.204 51.768 138.224 51.7321C138.25 51.6872 138.242 51.6386 138.203 51.5968C138.163 51.555 138.096 51.5232 138.014 51.5082C137.394 51.4044 136.754 51.3007 136.124 51.2133C136.084 51.2068 136.041 51.2049 135.999 51.2077C135.957 51.2106 135.916 51.2181 135.879 51.2299C135.843 51.2417 135.811 51.2574 135.786 51.2762C135.761 51.2949 135.744 51.3163 135.734 51.3389C135.724 51.3611 135.721 51.3843 135.727 51.407C135.733 51.4298 135.747 51.4517 135.768 51.4714C135.79 51.4912 135.818 51.5085 135.852 51.5223C135.885 51.5361 135.924 51.5462 135.964 51.5519C136.584 51.6392 137.204 51.743 137.824 51.8467L137.914 51.8522ZM134.154 51.3062C134.229 51.3067 134.301 51.2927 134.358 51.2666C134.414 51.2405 134.452 51.2042 134.464 51.1642C134.473 51.1416 134.474 51.1183 134.466 51.0956C134.458 51.0729 134.442 51.0512 134.419 51.032C134.395 51.0127 134.365 50.9961 134.33 50.9832C134.295 50.9702 134.256 50.9612 134.214 50.9567C133.574 50.8802 132.924 50.8147 132.284 50.7601C132.201 50.7522 132.115 50.7627 132.045 50.7893C131.976 50.8159 131.929 50.8565 131.914 50.9021C131.906 50.9252 131.906 50.9489 131.915 50.9719C131.924 50.9949 131.942 51.0166 131.968 51.0356C131.993 51.0546 132.025 51.0706 132.063 51.0823C132.1 51.0941 132.141 51.1016 132.184 51.1041C132.814 51.1642 133.454 51.2297 134.084 51.3007L134.154 51.3062ZM120.584 51.0058C121.214 50.9567 121.864 50.9185 122.504 50.8912C122.59 50.887 122.669 50.8647 122.725 50.829C122.782 50.7932 122.81 50.747 122.804 50.7C122.801 50.6771 122.788 50.6547 122.769 50.6343C122.749 50.6139 122.722 50.5958 122.69 50.581C122.657 50.5663 122.62 50.5553 122.579 50.5485C122.539 50.5418 122.496 50.5394 122.454 50.5417C121.804 50.5417 121.144 50.6072 120.454 50.6564C120.412 50.659 120.372 50.6663 120.336 50.6777C120.299 50.6892 120.267 50.7046 120.242 50.723C120.217 50.7413 120.198 50.7624 120.189 50.7847C120.179 50.8071 120.177 50.8303 120.184 50.8529C120.188 50.8794 120.203 50.9052 120.227 50.9281C120.252 50.9511 120.285 50.9707 120.326 50.9854C120.366 51.0001 120.413 51.0096 120.461 51.0132C120.509 51.0167 120.558 51.0142 120.604 51.0058H120.584ZM130.304 50.9621C130.384 50.9623 130.461 50.9462 130.521 50.9169C130.58 50.8876 130.617 50.8472 130.624 50.8038C130.633 50.7583 130.608 50.7127 130.556 50.677C130.503 50.6413 130.427 50.6182 130.344 50.6127C129.694 50.569 129.034 50.5362 128.344 50.5144C128.302 50.5129 128.26 50.516 128.22 50.5234C128.18 50.5309 128.144 50.5425 128.112 50.5577C128.08 50.573 128.055 50.5914 128.036 50.6121C128.018 50.6328 128.007 50.6553 128.004 50.6782C128 50.7013 128.005 50.7247 128.018 50.7468C128.031 50.7688 128.052 50.7892 128.08 50.8066C128.108 50.8241 128.143 50.8381 128.181 50.848C128.22 50.8578 128.262 50.8632 128.304 50.8639C128.944 50.8912 129.594 50.9185 130.224 50.9621H130.304ZM124.464 50.8311C125.114 50.8311 125.754 50.8311 126.404 50.8311C126.446 50.8318 126.487 50.828 126.526 50.8198C126.565 50.8116 126.6 50.7993 126.63 50.7835C126.66 50.7677 126.684 50.7488 126.7 50.7279C126.716 50.707 126.724 50.6845 126.724 50.6618C126.726 50.6389 126.719 50.616 126.704 50.5945C126.689 50.573 126.666 50.5534 126.638 50.5367C126.609 50.5199 126.574 50.5064 126.536 50.497C126.498 50.4876 126.456 50.4823 126.414 50.4816C125.754 50.4816 125.104 50.4816 124.414 50.4816C124.371 50.4823 124.329 50.4877 124.29 50.4975C124.251 50.5073 124.216 50.5212 124.187 50.5386C124.158 50.5559 124.136 50.5762 124.122 50.5983C124.108 50.6204 124.102 50.6439 124.104 50.6673C124.106 50.6923 124.118 50.7169 124.139 50.7392C124.16 50.7615 124.19 50.7811 124.226 50.7966C124.262 50.8122 124.303 50.8233 124.348 50.8293C124.393 50.8352 124.439 50.8358 124.484 50.8311H124.464ZM115.814 50.225C115.887 50.2255 115.958 50.2119 116.014 50.1868C116.073 50.1541 116.107 50.1099 116.107 50.0639C116.107 50.0179 116.073 49.9738 116.014 49.9411C115.614 49.6571 115.194 49.395 114.774 49.1056C114.714 49.0733 114.634 49.0551 114.549 49.0551C114.465 49.0551 114.384 49.0733 114.324 49.1056C114.264 49.1392 114.231 49.1843 114.231 49.2312C114.231 49.2781 114.264 49.3231 114.324 49.3568C114.734 49.6189 115.154 49.9028 115.544 50.1704C115.576 50.196 115.619 50.2166 115.67 50.23C115.721 50.2434 115.778 50.2492 115.834 50.2468L115.814 50.225ZM113.274 48.5869C113.315 48.587 113.356 48.5827 113.393 48.5743C113.431 48.5658 113.465 48.5534 113.494 48.5377C113.525 48.5219 113.549 48.5028 113.566 48.4817C113.582 48.4606 113.591 48.4378 113.591 48.4149C113.591 48.3919 113.582 48.3691 113.566 48.348C113.549 48.3269 113.525 48.3078 113.494 48.292C113.044 48.0299 112.574 47.7787 112.094 47.5385C112.065 47.5218 112.03 47.5085 111.992 47.4994C111.953 47.4903 111.911 47.4856 111.869 47.4856C111.827 47.4856 111.785 47.4903 111.747 47.4994C111.708 47.5085 111.673 47.5218 111.644 47.5385C111.613 47.5548 111.589 47.5743 111.572 47.5958C111.555 47.6174 111.547 47.6406 111.547 47.664C111.547 47.6875 111.555 47.7107 111.572 47.7323C111.589 47.7538 111.613 47.7733 111.644 47.7896C112.114 48.0244 112.574 48.2756 113.024 48.5268C113.051 48.553 113.09 48.5745 113.138 48.589C113.185 48.6035 113.24 48.6103 113.294 48.6087L113.274 48.5869ZM110.424 47.1398C110.519 47.1385 110.609 47.117 110.674 47.0798C110.734 47.0462 110.768 47.0011 110.768 46.9542C110.768 46.9073 110.734 46.8622 110.674 46.8286C110.164 46.5993 109.674 46.3809 109.114 46.1734C109.08 46.1599 109.04 46.1503 108.999 46.1452C108.957 46.1401 108.914 46.1395 108.872 46.1436C108.831 46.1476 108.791 46.1562 108.755 46.1689C108.719 46.1815 108.688 46.1978 108.664 46.217C108.639 46.2356 108.621 46.2568 108.611 46.2792C108.601 46.3017 108.599 46.325 108.605 46.3479C108.612 46.3707 108.626 46.3927 108.649 46.4124C108.671 46.4321 108.7 46.4492 108.734 46.4628C109.254 46.6666 109.764 46.8796 110.264 47.1016C110.31 47.1325 110.373 47.1538 110.444 47.1617L110.424 47.1398ZM107.254 45.9058C107.308 45.9057 107.361 45.8981 107.409 45.8838C107.456 45.8695 107.496 45.8489 107.524 45.8239C107.57 45.7839 107.585 45.7358 107.566 45.6899C107.547 45.644 107.496 45.6039 107.424 45.5782C106.864 45.3925 106.284 45.2123 105.704 45.0321C105.627 45.0109 105.538 45.007 105.456 45.0213C105.373 45.0356 105.305 45.0669 105.264 45.1086C105.226 45.1499 105.219 45.1978 105.245 45.2418C105.272 45.2858 105.329 45.3223 105.404 45.3434C105.974 45.5072 106.534 45.6819 107.084 45.8894C107.11 45.9024 107.14 45.9125 107.172 45.919C107.205 45.9256 107.24 45.9285 107.274 45.9276L107.254 45.9058ZM103.794 44.9229C103.857 44.9237 103.92 44.9143 103.973 44.8959C104.026 44.8774 104.069 44.8507 104.094 44.8192C104.111 44.798 104.119 44.7753 104.12 44.7523C104.12 44.7293 104.112 44.7065 104.096 44.6852C104.081 44.6639 104.057 44.6445 104.028 44.6282C103.998 44.6118 103.963 44.5988 103.924 44.5898C103.324 44.4479 102.704 44.3168 102.084 44.1967C102.044 44.189 102.002 44.1857 101.959 44.187C101.917 44.1883 101.876 44.1942 101.837 44.2044C101.799 44.2146 101.765 44.2288 101.737 44.2462C101.709 44.2636 101.688 44.2839 101.674 44.3059C101.66 44.3277 101.654 44.3509 101.657 44.3741C101.659 44.3972 101.67 44.4199 101.688 44.4407C101.707 44.4615 101.733 44.4801 101.765 44.4954C101.797 44.5107 101.834 44.5224 101.874 44.5298C102.474 44.6444 103.084 44.7755 103.664 44.912C103.708 44.9297 103.76 44.941 103.814 44.9448L103.794 44.9229ZM78.8943 44.4861H78.9643L80.8643 44.2677C80.9067 44.2637 80.9471 44.2552 80.9833 44.2426C81.0195 44.2299 81.0507 44.2134 81.0749 44.1941C81.0992 44.1747 81.1161 44.1529 81.1245 44.1298C81.133 44.1068 81.133 44.0832 81.1243 44.0602C81.1051 44.0152 81.055 43.9759 80.9842 43.9505C80.9135 43.9251 80.8276 43.9155 80.7443 43.9237C80.1043 43.9892 79.4643 44.0656 78.8243 44.1421C78.7419 44.1526 78.6699 44.1799 78.6234 44.2186C78.5769 44.2572 78.5593 44.3041 78.5743 44.3496C78.5864 44.3939 78.6275 44.4344 78.69 44.4635C78.7525 44.4926 78.8321 44.5084 78.9143 44.5079L78.8943 44.4861ZM100.114 44.224C100.187 44.2252 100.258 44.2129 100.316 44.1891C100.375 44.1653 100.416 44.1314 100.434 44.0929C100.445 44.0707 100.447 44.0476 100.441 44.0248C100.435 44.0021 100.421 43.9802 100.4 43.9604C100.379 43.9407 100.35 43.9234 100.317 43.9096C100.283 43.8957 100.245 43.8857 100.204 43.88C99.5743 43.7871 98.9343 43.6998 98.2843 43.6288C98.1995 43.6208 98.1124 43.6311 98.0415 43.6576C97.9705 43.6841 97.9212 43.7247 97.9043 43.7708C97.8892 43.8163 97.9068 43.8632 97.9533 43.9018C97.9999 43.9404 98.0718 43.9678 98.1543 43.9783C98.7943 44.0438 99.4243 44.1257 100.034 44.2185L100.114 44.224ZM82.7143 44.0711H82.7743C83.4409 44.0092 84.081 43.9546 84.6943 43.9073C84.7785 43.8992 84.8535 43.8737 84.9039 43.836C84.9543 43.7983 84.9759 43.7514 84.9643 43.7052C84.9594 43.6824 84.9462 43.6603 84.9252 43.6404C84.9042 43.6205 84.876 43.6031 84.8423 43.5893C84.8086 43.5755 84.7701 43.5656 84.7292 43.5602C84.6883 43.5548 84.6458 43.554 84.6043 43.5578C83.9543 43.607 83.3143 43.6616 82.6643 43.7216C82.5808 43.7296 82.5065 43.7554 82.4577 43.7933C82.409 43.8312 82.3897 43.8781 82.4043 43.9237C82.4042 43.9468 82.4128 43.9698 82.4297 43.9911C82.4465 44.0123 82.4711 44.0315 82.502 44.0474C82.533 44.0633 82.5696 44.0755 82.6095 44.0833C82.6495 44.0912 82.6919 44.0944 82.7343 44.0929L82.7143 44.0711ZM96.3043 43.8035C96.3821 43.8027 96.4569 43.787 96.5154 43.759C96.574 43.731 96.6125 43.6926 96.6243 43.6506C96.6299 43.6277 96.627 43.6043 96.6159 43.5819C96.6048 43.5596 96.5857 43.5386 96.5597 43.5203C96.5336 43.502 96.5011 43.4868 96.4641 43.4754C96.4272 43.464 96.3864 43.4568 96.3443 43.4541C95.7043 43.4049 95.0443 43.3667 94.3443 43.3394C94.3027 43.3372 94.2609 43.3395 94.221 43.3463C94.1812 43.3531 94.1443 43.3643 94.1126 43.3791C94.0808 43.3938 94.0548 43.412 94.0362 43.4324C94.0176 43.4528 94.0068 43.475 94.0043 43.4978C94.0002 43.5207 94.0044 43.5439 94.0168 43.566C94.0291 43.588 94.0494 43.6085 94.0763 43.6263C94.1033 43.6441 94.1365 43.6588 94.1739 43.6695C94.2113 43.6802 94.2522 43.6868 94.2943 43.6889C94.9443 43.7162 95.5943 43.7544 96.2143 43.8035H96.3043ZM86.5743 43.7762C87.2143 43.738 87.8643 43.7107 88.5043 43.6834C88.5464 43.682 88.5875 43.6761 88.6253 43.666C88.6632 43.6559 88.697 43.6418 88.7249 43.6246C88.7528 43.6074 88.7741 43.5873 88.7878 43.5655C88.8014 43.5437 88.807 43.5207 88.8043 43.4978C88.8018 43.4743 88.7907 43.4513 88.7716 43.4303C88.7525 43.4092 88.7258 43.3905 88.6931 43.3752C88.6604 43.3599 88.6224 43.3484 88.5814 43.3413C88.5404 43.3342 88.4971 43.3317 88.4543 43.3339C87.8043 43.3339 87.1543 43.3885 86.4543 43.4268C86.4122 43.4288 86.3712 43.4354 86.3338 43.4461C86.2964 43.4569 86.2633 43.4716 86.2364 43.4893C86.2094 43.5071 86.1892 43.5276 86.1768 43.5497C86.1644 43.5717 86.1601 43.5949 86.1643 43.6179C86.1592 43.6473 86.1679 43.677 86.1895 43.7041C86.2112 43.7312 86.2451 43.7549 86.2881 43.7729C86.331 43.7909 86.3817 43.8026 86.4352 43.8071C86.4888 43.8115 86.5435 43.8084 86.5943 43.7981L86.5743 43.7762ZM92.4143 43.6343C92.4984 43.6343 92.5795 43.6169 92.6408 43.5854C92.7022 43.5539 92.7392 43.5108 92.7443 43.465C92.7456 43.4416 92.7383 43.4183 92.7229 43.3964C92.7074 43.3746 92.684 43.3547 92.6541 43.3379C92.6243 43.3211 92.5886 43.3077 92.5491 43.2986C92.5096 43.2895 92.4672 43.2848 92.4243 43.2848C91.7743 43.2848 91.1143 43.2848 90.4243 43.2848C90.3814 43.2848 90.339 43.2895 90.2995 43.2986C90.26 43.3077 90.2242 43.3211 90.1944 43.3379C90.1645 43.3547 90.1412 43.3746 90.1257 43.3964C90.1102 43.4183 90.1029 43.4416 90.1043 43.465C90.1069 43.5104 90.1417 43.5534 90.2014 43.585C90.2612 43.6166 90.3411 43.6343 90.4243 43.6343H92.3743H92.4143Z" fill="#999999"/>
<path d="M42.454 15.2239L39.6341 15.8901L28.3641 11.5982L25.3641 12.5046C22.9541 13.2909 20.6141 13.3455 19.4941 12.9961L19.264 13.0561C17.524 13.4711 16.494 13.0998 16.144 12.6521C15.794 12.2043 15.9941 11.56 17.7341 11.1341L17.9641 11.0794C18.174 10.5334 19.0841 9.61607 22.6341 9.07548L25.9041 8.50213L27.9041 1.08141L30.7241 0.40979L32.9141 7.28446L40.9741 5.77738L42.1941 4.01366L44.4341 3.56045L44.5941 5.19858L45.394 5.16035L46.1241 6.07225L45.524 6.39441L47.644 7.59571L45.5041 8.17997L42.3241 7.4592L34.7941 9.64337L42.454 15.2239ZM42.2441 7.06058L45.4441 7.78681L46.4441 7.50288L44.5041 6.41079L45.2341 6.00673L44.894 5.57535L43.894 5.62449L43.7441 4.09558L42.6541 4.31399L41.4341 6.08316L32.3141 7.78136L30.144 0.950367L28.454 1.34898L26.5041 8.797L22.8141 9.44132C19.3741 9.96006 18.6941 10.801 18.5941 11.2542V11.3689L18.394 11.4071C18.267 11.4268 18.1432 11.4524 18.024 11.4835C16.954 11.7347 16.4741 12.1333 16.7841 12.5155C17.0941 12.8978 17.944 12.9851 19.014 12.7285C19.1344 12.702 19.2514 12.6709 19.3641 12.6357L19.5541 12.5756L19.7341 12.6466C20.4641 12.9415 22.5941 12.9961 25.0541 12.1988L28.4141 11.1723L39.7141 15.4806L41.4041 15.082L33.7441 9.54507L42.2441 7.06058Z" fill="#999999"/>
<path d="M139.234 61.053C139.288 61.0534 139.342 61.0461 139.389 61.0317C139.437 61.0174 139.476 60.9965 139.504 60.9711C139.864 60.6726 140.198 60.3723 140.504 60.0701C140.55 60.0302 140.565 59.9821 140.546 59.9362C140.527 59.8902 140.476 59.8501 140.404 59.8244C140.33 59.8001 140.241 59.7928 140.157 59.8041C140.073 59.8153 140 59.8442 139.954 59.8845C139.614 60.1848 139.274 60.4797 138.954 60.78C138.93 60.7992 138.913 60.821 138.905 60.8438C138.896 60.8667 138.896 60.8903 138.904 60.9132C138.913 60.9361 138.929 60.9579 138.953 60.9772C138.977 60.9965 139.008 61.013 139.044 61.0257C139.103 61.0431 139.168 61.0524 139.234 61.053ZM141.234 59.2402C141.291 59.2399 141.346 59.2317 141.395 59.2164C141.444 59.2011 141.485 59.1792 141.514 59.1528C141.834 58.8415 142.154 58.5303 142.514 58.2191C142.555 58.1783 142.565 58.1305 142.543 58.0858C142.52 58.041 142.467 58.0027 142.394 57.9788C142.318 57.9571 142.23 57.9525 142.148 57.9657C142.066 57.9789 141.996 58.0091 141.954 58.0498C141.644 58.361 141.324 58.6668 141.004 58.9726C140.96 59.0132 140.946 59.0618 140.967 59.1078C140.988 59.1537 141.041 59.1934 141.114 59.2183C141.166 59.2338 141.225 59.2413 141.284 59.2402H141.234ZM143.094 57.3727C143.154 57.3723 143.213 57.3629 143.264 57.3456C143.315 57.3283 143.357 57.3037 143.384 57.2744C143.684 56.9577 143.974 56.6355 144.254 56.3188C144.273 56.298 144.284 56.2755 144.286 56.2524C144.289 56.2293 144.283 56.2062 144.269 56.1843C144.255 56.1625 144.233 56.1423 144.205 56.1251C144.177 56.1079 144.143 56.0939 144.104 56.084C144.066 56.0738 144.025 56.0679 143.983 56.0665C143.94 56.0651 143.898 56.0683 143.858 56.0759C143.818 56.0835 143.781 56.0954 143.75 56.1109C143.718 56.1263 143.692 56.145 143.674 56.1659C143.394 56.4826 143.104 56.7993 142.804 57.116C142.786 57.1368 142.775 57.1594 142.772 57.1825C142.77 57.2056 142.775 57.2287 142.789 57.2506C142.803 57.2724 142.825 57.2925 142.853 57.3097C142.882 57.3269 142.916 57.3409 142.954 57.3508C142.981 57.3618 143.012 57.3695 143.045 57.3732C143.078 57.377 143.112 57.3768 143.144 57.3727H143.094ZM144.784 55.4506C144.847 55.4501 144.908 55.4401 144.961 55.4218C145.014 55.4035 145.057 55.3776 145.084 55.3469L145.864 54.3694C145.897 54.3253 145.897 54.2757 145.863 54.2317C145.829 54.1877 145.765 54.1528 145.684 54.1346C145.605 54.1183 145.516 54.1194 145.438 54.1377C145.36 54.156 145.298 54.1901 145.264 54.2329C145.014 54.5551 144.754 54.8773 144.494 55.2049C144.476 55.2256 144.466 55.2481 144.464 55.271C144.462 55.294 144.469 55.3169 144.484 55.3383C144.499 55.3598 144.522 55.3793 144.551 55.3958C144.58 55.4123 144.615 55.4254 144.654 55.4342C144.71 55.4494 144.773 55.4551 144.834 55.4506H144.784ZM146.294 53.4903C146.358 53.49 146.421 53.4795 146.474 53.4601C146.527 53.4407 146.569 53.4132 146.594 53.3811C146.834 53.0426 147.064 52.7095 147.294 52.3764C147.308 52.3545 147.314 52.3314 147.312 52.3082C147.31 52.2851 147.299 52.2624 147.28 52.2416C147.262 52.2207 147.236 52.2021 147.204 52.1868C147.172 52.1716 147.135 52.1599 147.094 52.1525C147.015 52.1381 146.928 52.1408 146.852 52.1601C146.775 52.1793 146.716 52.2137 146.684 52.2563C146.464 52.5893 146.234 52.917 145.994 53.2501C145.964 53.2936 145.966 53.3418 146 53.3845C146.033 53.4272 146.096 53.4612 146.174 53.4794L146.294 53.4903ZM147.634 51.4918C147.701 51.4914 147.766 51.4795 147.82 51.458C147.873 51.4365 147.913 51.4063 147.934 51.3717C148.154 51.0331 148.354 50.6946 148.544 50.356C148.57 50.3111 148.562 50.2626 148.523 50.2208C148.483 50.179 148.416 50.1472 148.334 50.1322C148.252 50.1183 148.163 50.1225 148.087 50.144C148.01 50.1654 147.952 50.2023 147.924 50.2468C147.734 50.5854 147.534 50.9185 147.324 51.257C147.299 51.3019 147.307 51.3504 147.346 51.3923C147.385 51.4341 147.453 51.4659 147.534 51.4809L147.634 51.4918ZM148.794 49.4605C148.865 49.4596 148.933 49.4464 148.989 49.4229C149.045 49.3993 149.085 49.3666 149.104 49.3295C149.284 48.9855 149.464 48.6415 149.624 48.3029C149.646 48.2573 149.634 48.2089 149.591 48.1681C149.548 48.1273 149.477 48.0973 149.394 48.0845C149.354 48.0787 149.311 48.0774 149.27 48.0806C149.228 48.0838 149.188 48.0915 149.152 48.1032C149.115 48.1148 149.084 48.1303 149.058 48.1486C149.033 48.167 149.015 48.1879 149.004 48.2101C148.834 48.5486 148.664 48.8926 148.484 49.2312C148.472 49.2534 148.468 49.2767 148.473 49.2998C148.477 49.3229 148.49 49.3452 148.51 49.3656C148.531 49.3859 148.559 49.4038 148.592 49.4182C148.625 49.4327 148.663 49.4433 148.704 49.4496L148.794 49.4605ZM149.794 47.4019C149.866 47.4007 149.935 47.3867 149.991 47.3621C150.047 47.3375 150.087 47.3035 150.104 47.2654C150.254 46.916 150.404 46.5665 150.534 46.2225C150.545 46.2002 150.546 46.1771 150.54 46.1544C150.533 46.1317 150.518 46.11 150.496 46.0906C150.473 46.0712 150.444 46.0545 150.409 46.0415C150.375 46.0285 150.336 46.0195 150.294 46.015C150.253 46.0093 150.21 46.0082 150.168 46.0118C150.126 46.0153 150.085 46.0235 150.049 46.0357C150.012 46.0479 149.981 46.0639 149.956 46.0829C149.931 46.1018 149.914 46.1233 149.904 46.146C149.774 46.4901 149.624 46.8341 149.474 47.1835C149.456 47.2291 149.471 47.2767 149.516 47.3164C149.56 47.3562 149.632 47.3848 149.714 47.3965L149.794 47.4019ZM150.614 45.3161C150.69 45.3168 150.763 45.3029 150.822 45.277C150.88 45.251 150.92 45.2146 150.934 45.1741C151.054 44.8246 151.174 44.4752 151.284 44.1257C151.299 44.0801 151.28 44.0332 151.231 43.9953C151.182 43.9574 151.108 43.9316 151.024 43.9237C150.982 43.9189 150.939 43.9189 150.897 43.9235C150.855 43.9281 150.815 43.9373 150.779 43.9506C150.744 43.9638 150.713 43.9809 150.69 44.0006C150.667 44.0204 150.651 44.0425 150.644 44.0656C150.534 44.4096 150.424 44.7591 150.294 45.1086C150.286 45.1315 150.285 45.1553 150.294 45.1783C150.302 45.2013 150.319 45.2231 150.344 45.2425C150.368 45.2618 150.399 45.2783 150.435 45.291C150.471 45.3036 150.512 45.3121 150.554 45.3161H150.614ZM151.274 43.2193C151.352 43.221 151.427 43.2068 151.487 43.1795C151.546 43.1522 151.584 43.1138 151.594 43.0718C151.694 42.7169 151.784 42.362 151.864 42.0125C151.87 41.9895 151.867 41.9662 151.856 41.9438C151.845 41.9214 151.826 41.9005 151.8 41.8822C151.774 41.8639 151.741 41.8486 151.704 41.8372C151.667 41.8259 151.626 41.8186 151.584 41.8159C151.542 41.8121 151.499 41.813 151.457 41.8188C151.416 41.8245 151.377 41.8349 151.343 41.8493C151.309 41.8636 151.281 41.8817 151.261 41.9023C151.24 41.9228 151.228 41.9455 151.224 41.9688C151.144 42.311 151.054 42.6605 150.954 43.0172C150.943 43.0634 150.964 43.1103 151.015 43.148C151.065 43.1857 151.14 43.2112 151.224 43.2193H151.274ZM151.764 41.1061C151.845 41.1076 151.923 41.0919 151.983 41.0623C152.043 41.0328 152.079 40.9917 152.084 40.9477C152.154 40.5928 152.224 40.2379 152.274 39.8884C152.28 39.8415 152.252 39.7952 152.196 39.7595C152.139 39.7238 152.06 39.7015 151.974 39.6973C151.932 39.6942 151.89 39.696 151.85 39.7025C151.809 39.709 151.772 39.72 151.74 39.735C151.707 39.7499 151.681 39.7684 151.663 39.7892C151.645 39.81 151.635 39.8326 151.634 39.8556C151.574 40.2051 151.514 40.56 151.444 40.915C151.44 40.9379 151.444 40.9611 151.457 40.9832C151.469 41.0052 151.489 41.0257 151.516 41.0435C151.543 41.0613 151.576 41.076 151.614 41.0867C151.651 41.0974 151.692 41.104 151.734 41.1061H151.764ZM152.094 38.9874C152.176 38.9875 152.254 38.9706 152.314 38.9402C152.373 38.9097 152.409 38.868 152.414 38.8236C152.414 38.4578 152.494 38.1028 152.514 37.7315C152.517 37.7081 152.511 37.6847 152.497 37.6626C152.483 37.6405 152.46 37.6201 152.431 37.6028C152.402 37.5855 152.367 37.5715 152.328 37.5617C152.289 37.552 152.247 37.5466 152.204 37.5459C152.12 37.548 152.04 37.5661 151.978 37.597C151.916 37.6279 151.876 37.6697 151.864 37.7151C151.864 38.0646 151.864 38.4195 151.774 38.7745C151.769 38.8214 151.797 38.8677 151.853 38.9034C151.909 38.9391 151.989 38.9614 152.074 38.9656L152.094 38.9874ZM152.244 36.8579C152.329 36.8579 152.411 36.8395 152.471 36.8067C152.531 36.7739 152.564 36.7295 152.564 36.6831C152.564 36.4319 152.564 36.1862 152.564 35.9405V35.6183C152.564 35.572 152.531 35.5276 152.471 35.4948C152.411 35.462 152.329 35.4436 152.244 35.4436C152.159 35.4436 152.078 35.462 152.018 35.4948C151.958 35.5276 151.924 35.572 151.924 35.6183V35.9405C151.924 36.1862 151.924 36.4319 151.924 36.6777C151.923 36.7011 151.93 36.7244 151.946 36.7462C151.961 36.768 151.985 36.788 152.014 36.8048C152.044 36.8216 152.08 36.8349 152.119 36.8441C152.159 36.8532 152.201 36.8579 152.244 36.8579ZM152.244 34.7283C152.287 34.7283 152.33 34.7236 152.369 34.7145C152.409 34.7054 152.444 34.692 152.474 34.6752C152.504 34.6584 152.527 34.6385 152.543 34.6166C152.558 34.5948 152.566 34.5715 152.564 34.5481C152.564 34.1823 152.504 33.8273 152.474 33.456C152.467 33.4092 152.426 33.3658 152.36 33.3352C152.295 33.3046 152.21 33.2892 152.124 33.2922C152.082 33.2936 152.041 33.2995 152.003 33.3096C151.965 33.3197 151.932 33.3338 151.904 33.351C151.876 33.3683 151.854 33.3883 151.841 33.4101C151.827 33.4319 151.822 33.4549 151.824 33.4779C151.824 33.8219 151.894 34.1768 151.914 34.5372C151.91 34.5629 151.915 34.5889 151.931 34.6132C151.947 34.6376 151.973 34.6597 152.006 34.678C152.04 34.6963 152.08 34.7102 152.125 34.7189C152.17 34.7276 152.217 34.7308 152.264 34.7283H152.244ZM152.014 32.6042C152.056 32.6021 152.097 32.5955 152.135 32.5848C152.172 32.5741 152.205 32.5594 152.232 32.5416C152.259 32.5239 152.279 32.5034 152.292 32.4813C152.304 32.4592 152.308 32.436 152.304 32.4131C152.244 32.049 152.174 31.685 152.094 31.321C152.091 31.2977 152.078 31.275 152.058 31.2544C152.038 31.2338 152.01 31.2158 151.976 31.2014C151.942 31.1871 151.903 31.1767 151.861 31.171C151.82 31.1652 151.777 31.1642 151.734 31.1681C151.65 31.1749 151.574 31.1991 151.522 31.2357C151.47 31.2723 151.446 31.3185 151.454 31.3647C151.534 31.6978 151.604 32.0527 151.664 32.4185C151.66 32.4454 151.668 32.4724 151.686 32.4975C151.704 32.5225 151.733 32.5449 151.77 32.5629C151.807 32.5809 151.851 32.594 151.898 32.6011C151.946 32.6083 151.996 32.6093 152.044 32.6042H152.014ZM151.534 30.491C151.618 30.483 151.692 30.4572 151.741 30.4194C151.79 30.3815 151.809 30.3346 151.794 30.289L151.734 30.076C151.644 29.7975 151.544 29.53 151.444 29.2351C151.436 29.2125 151.419 29.1909 151.396 29.1718C151.372 29.1527 151.342 29.1363 151.306 29.1236C151.271 29.1109 151.231 29.1021 151.19 29.0978C151.148 29.0936 151.106 29.0938 151.064 29.0986C151.022 29.1024 150.982 29.111 150.946 29.1237C150.91 29.1364 150.88 29.153 150.856 29.1725C150.833 29.192 150.817 29.2139 150.81 29.2369C150.802 29.2599 150.804 29.2834 150.814 29.3061C150.914 29.5846 151.004 29.8521 151.094 30.1361L151.164 30.3436C151.169 30.3681 151.183 30.3919 151.205 30.4132C151.228 30.4345 151.259 30.4528 151.296 30.4668C151.334 30.4809 151.376 30.4903 151.42 30.4945C151.465 30.4987 151.511 30.4975 151.554 30.491H151.534ZM150.764 28.4051H150.834C150.875 28.4006 150.915 28.3916 150.949 28.3786C150.984 28.3656 151.013 28.3489 151.036 28.3295C151.058 28.3101 151.073 28.2884 151.08 28.2657C151.086 28.243 151.085 28.2199 151.074 28.1976C150.924 27.8482 150.774 27.5042 150.604 27.1547C150.593 27.1323 150.573 27.1115 150.547 27.0933C150.52 27.0751 150.488 27.06 150.45 27.0488C150.413 27.0376 150.372 27.0306 150.33 27.0282C150.288 27.0257 150.245 27.0279 150.204 27.0346C150.164 27.0403 150.125 27.0503 150.092 27.0641C150.058 27.0779 150.03 27.0952 150.008 27.115C149.987 27.1348 149.973 27.1567 149.967 27.1794C149.961 27.2021 149.964 27.2253 149.974 27.2475C150.144 27.5915 150.304 27.9301 150.444 28.2741C150.465 28.3139 150.51 28.3487 150.572 28.3726C150.634 28.3964 150.709 28.4079 150.784 28.4051H150.764ZM149.764 26.352H149.854C149.895 26.3457 149.933 26.3351 149.967 26.3206C150 26.3062 150.028 26.2883 150.048 26.268C150.069 26.2477 150.081 26.2253 150.086 26.2022C150.09 26.1791 150.087 26.1558 150.074 26.1336C149.884 25.7896 149.684 25.451 149.474 25.1125C149.461 25.0905 149.439 25.0702 149.411 25.0528C149.383 25.0354 149.349 25.0212 149.311 25.011C149.273 25.0008 149.232 24.9949 149.189 24.9936C149.147 24.9923 149.104 24.9956 149.064 25.0033C149.024 25.0106 148.987 25.0223 148.955 25.0376C148.923 25.0529 148.897 25.0715 148.878 25.0923C148.86 25.1132 148.849 25.1358 148.847 25.159C148.844 25.1821 148.85 25.2053 148.864 25.2271C149.074 25.5602 149.264 25.8988 149.454 26.2373C149.478 26.2727 149.522 26.303 149.579 26.3237C149.637 26.3443 149.705 26.3543 149.774 26.352H149.764ZM148.514 24.3316C148.55 24.3367 148.588 24.3367 148.624 24.3316C148.704 24.3157 148.768 24.2831 148.804 24.2411C148.84 24.1992 148.843 24.1512 148.814 24.1078C148.584 23.7747 148.344 23.4416 148.084 23.114C148.069 23.0923 148.046 23.0726 148.016 23.0559C147.987 23.0391 147.951 23.0258 147.912 23.0167C147.873 23.0075 147.831 23.0027 147.788 23.0025C147.746 23.0024 147.704 23.0068 147.664 23.0157C147.625 23.0246 147.59 23.0377 147.561 23.054C147.531 23.0704 147.508 23.0898 147.492 23.1111C147.476 23.1324 147.468 23.1552 147.469 23.1782C147.469 23.2012 147.478 23.2239 147.494 23.245C147.744 23.5726 147.984 23.9003 148.204 24.2334C148.234 24.2652 148.28 24.2915 148.337 24.309C148.394 24.3265 148.459 24.3344 148.524 24.3316H148.514ZM147.044 22.3987C147.09 22.4038 147.138 22.4038 147.184 22.3987C147.262 22.3785 147.321 22.3427 147.351 22.2989C147.381 22.2551 147.379 22.2067 147.344 22.1639C147.064 21.8417 146.784 21.5195 146.484 21.1974C146.444 21.1571 146.377 21.1268 146.297 21.1126C146.217 21.0984 146.13 21.1014 146.054 21.1209C145.976 21.1421 145.917 21.1792 145.889 21.2242C145.861 21.2692 145.866 21.3184 145.904 21.3612C146.204 21.6724 146.484 21.9891 146.754 22.3113C146.783 22.3393 146.825 22.3624 146.876 22.3779C146.927 22.3934 146.986 22.4006 147.044 22.3987ZM145.284 20.4984C145.333 20.5059 145.385 20.5059 145.434 20.4984C145.472 20.4876 145.506 20.4727 145.533 20.4546C145.56 20.4365 145.58 20.4157 145.592 20.3933C145.604 20.3709 145.608 20.3474 145.603 20.3242C145.599 20.301 145.585 20.2785 145.564 20.2582C145.244 19.9469 144.914 19.6357 144.564 19.3354C144.544 19.315 144.516 19.2972 144.482 19.2831C144.448 19.2689 144.409 19.2587 144.368 19.2531C144.327 19.2474 144.284 19.2465 144.242 19.2503C144.2 19.2541 144.16 19.2626 144.124 19.2753C144.088 19.2871 144.057 19.3027 144.031 19.3211C144.006 19.3396 143.988 19.3606 143.978 19.3829C143.968 19.4053 143.966 19.4285 143.972 19.4512C143.978 19.474 143.992 19.4958 144.014 19.5155C144.354 19.8159 144.674 20.1217 145.014 20.4329C145.047 20.448 145.086 20.4592 145.127 20.4658C145.168 20.4724 145.212 20.4742 145.254 20.4711L145.284 20.4984ZM143.284 18.6801C143.343 18.6898 143.406 18.6898 143.464 18.6801C143.5 18.6674 143.531 18.6509 143.555 18.6316C143.579 18.6123 143.596 18.5905 143.604 18.5676C143.613 18.5447 143.613 18.5211 143.604 18.4982C143.595 18.4753 143.579 18.4536 143.554 18.4344C143.184 18.1395 142.814 17.8447 142.424 17.5553C142.373 17.5185 142.297 17.4941 142.213 17.487C142.129 17.4798 142.044 17.4906 141.974 17.517C141.907 17.5452 141.862 17.5865 141.849 17.6322C141.836 17.678 141.856 17.7247 141.904 17.7627C142.284 18.0467 142.654 18.3361 143.014 18.631C143.078 18.6512 143.152 18.6589 143.224 18.6528L143.284 18.6801ZM99.2843 17.4733H99.6943C99.7364 17.472 99.7775 17.466 99.8153 17.456C99.8532 17.4459 99.887 17.4318 99.9149 17.4145C99.9428 17.3973 99.9641 17.3772 99.9777 17.3554C99.9914 17.3337 99.997 17.3106 99.9943 17.2877C99.9931 17.2645 99.9832 17.2416 99.9652 17.2206C99.9472 17.1996 99.9214 17.1808 99.8895 17.1654C99.8576 17.1501 99.8203 17.1384 99.7798 17.1313C99.7393 17.1241 99.6966 17.1216 99.6543 17.1239C99.2717 17.1431 98.8868 17.1431 98.5043 17.1239C98.2751 17.1081 98.048 17.0844 97.8243 17.0529C97.7408 17.0411 97.6522 17.0477 97.5774 17.0712C97.5027 17.0946 97.4477 17.1332 97.4243 17.1785C97.4139 17.2011 97.4119 17.2246 97.4184 17.2476C97.4249 17.2706 97.4398 17.2927 97.4621 17.3126C97.4845 17.3324 97.5139 17.3496 97.5486 17.3632C97.5833 17.3767 97.6227 17.3863 97.6643 17.3914C97.9166 17.4297 98.1741 17.4571 98.4343 17.4733C98.6816 17.4707 98.9286 17.4616 99.1743 17.446L99.2843 17.4733ZM101.584 17.2604H101.684C102.334 17.1358 102.939 16.9511 103.474 16.7143C103.534 16.6807 103.568 16.6357 103.568 16.5888C103.568 16.5419 103.534 16.4968 103.474 16.4632C103.444 16.4463 103.409 16.4329 103.369 16.4238C103.33 16.4146 103.287 16.4099 103.244 16.4099C103.201 16.4099 103.159 16.4146 103.119 16.4238C103.08 16.4329 103.044 16.4463 103.014 16.4632C102.536 16.6716 101.999 16.8357 101.424 16.9492C101.384 16.9565 101.347 16.9682 101.315 16.9835C101.283 16.9988 101.257 17.0174 101.238 17.0382C101.22 17.059 101.209 17.0817 101.207 17.1048C101.204 17.128 101.21 17.1512 101.224 17.173C101.256 17.1922 101.294 17.2075 101.337 17.2178C101.38 17.2282 101.427 17.2334 101.474 17.2331L101.584 17.2604ZM141.034 16.9655C141.107 16.966 141.178 16.9525 141.234 16.9273C141.294 16.8937 141.328 16.8486 141.328 16.8017C141.328 16.7548 141.294 16.7098 141.234 16.6761C140.824 16.3976 140.394 16.1301 139.974 15.8571C139.913 15.8244 139.83 15.8061 139.744 15.8061C139.658 15.8061 139.576 15.8244 139.514 15.8571C139.454 15.8907 139.421 15.9358 139.421 15.9827C139.421 16.0296 139.454 16.0746 139.514 16.1082C139.934 16.3703 140.354 16.6543 140.754 16.9164C140.807 16.9316 140.865 16.9392 140.924 16.9382L141.034 16.9655ZM95.9743 16.9382C96.0269 16.9374 96.0785 16.9301 96.1253 16.9169C96.172 16.9036 96.2127 16.8848 96.2443 16.8618C96.2896 16.8218 96.3045 16.7737 96.2859 16.7278C96.2672 16.6819 96.2164 16.6418 96.1443 16.6161C95.6284 16.429 95.161 16.2049 94.7543 15.9499C94.6944 15.9175 94.6135 15.8994 94.5293 15.8994C94.445 15.8994 94.3642 15.9175 94.3043 15.9499C94.2444 15.9835 94.2109 16.0286 94.2109 16.0755C94.2109 16.1224 94.2444 16.1674 94.3043 16.2011C94.7478 16.4835 95.263 16.7299 95.8343 16.9328C95.8441 16.9349 95.8541 16.9367 95.8643 16.9382H95.9743ZM104.504 15.928C104.562 15.9272 104.618 15.9182 104.667 15.9019C104.716 15.8857 104.756 15.8627 104.784 15.8352C105.114 15.4952 105.328 15.1251 105.414 14.7431C105.42 14.7202 105.417 14.6968 105.406 14.6744C105.395 14.6521 105.376 14.6311 105.35 14.6128C105.324 14.5945 105.291 14.5793 105.254 14.5679C105.217 14.5565 105.176 14.5493 105.134 14.5466C105.051 14.5403 104.966 14.5523 104.899 14.5799C104.831 14.6075 104.787 14.6485 104.774 14.694C104.691 15.0255 104.505 15.3468 104.224 15.6441C104.203 15.6645 104.19 15.6869 104.185 15.7101C104.18 15.7333 104.184 15.7568 104.196 15.7792C104.208 15.8016 104.229 15.8225 104.256 15.8405C104.283 15.8586 104.316 15.8735 104.354 15.8844C104.367 15.8903 104.38 15.8957 104.394 15.9007L104.504 15.928ZM138.454 15.382C138.54 15.3825 138.622 15.3649 138.684 15.3329C138.744 15.2992 138.778 15.2542 138.778 15.2073C138.778 15.1604 138.744 15.1153 138.684 15.0817C138.224 14.825 137.754 14.5739 137.284 14.3281C137.223 14.2955 137.14 14.2772 137.054 14.2772C136.968 14.2772 136.886 14.2955 136.824 14.3281C136.765 14.3609 136.732 14.405 136.732 14.451C136.732 14.497 136.765 14.5412 136.824 14.5739C137.284 14.8141 137.744 15.0653 138.194 15.3165C138.24 15.3308 138.292 15.3384 138.344 15.3383L138.454 15.382ZM93.4543 15.382C93.5038 15.3872 93.5547 15.3872 93.6043 15.382C93.6787 15.3589 93.7345 15.3214 93.7604 15.2768C93.7864 15.2323 93.7806 15.1841 93.7443 15.1418C93.4627 14.8379 93.2575 14.5146 93.1343 14.1807C93.1249 14.158 93.1073 14.1365 93.0825 14.1176C93.0577 14.0986 93.0262 14.0825 92.9898 14.0703C92.9535 14.0581 92.913 14.05 92.8709 14.0465C92.8287 14.0429 92.7857 14.044 92.7443 14.0497C92.7028 14.0542 92.6634 14.0632 92.6283 14.0761C92.5933 14.0891 92.5633 14.1056 92.54 14.1249C92.5168 14.1442 92.5007 14.1659 92.4929 14.1886C92.485 14.2112 92.4855 14.2346 92.4943 14.2572C92.6393 14.6184 92.8643 14.9686 93.1643 15.3001C93.2124 15.3166 93.2676 15.326 93.3243 15.3274L93.4543 15.382ZM135.644 13.935C135.69 13.9349 135.735 13.9295 135.776 13.9191C135.818 13.9088 135.854 13.8937 135.884 13.8749C135.944 13.8413 135.978 13.7962 135.978 13.7493C135.978 13.7024 135.944 13.6574 135.884 13.6237L135.284 13.3507L134.354 12.9521C134.285 12.9234 134.198 12.9108 134.112 12.9169C134.026 12.923 133.948 12.9475 133.894 12.9849C133.845 13.0223 133.823 13.0686 133.835 13.1143C133.846 13.16 133.889 13.2016 133.954 13.2306L134.874 13.6237L135.464 13.8968C135.482 13.8922 135.499 13.8867 135.514 13.8804L135.644 13.935ZM105.124 13.8859C105.21 13.8804 105.289 13.8567 105.343 13.8199C105.397 13.7832 105.423 13.7362 105.414 13.6893C105.338 13.3188 105.197 12.9531 104.994 12.5972C104.983 12.5748 104.963 12.554 104.937 12.5358C104.91 12.5176 104.878 12.5025 104.84 12.4913C104.803 12.4802 104.762 12.4731 104.72 12.4707C104.678 12.4682 104.635 12.4704 104.594 12.4771C104.553 12.4832 104.515 12.4939 104.483 12.5084C104.45 12.523 104.422 12.541 104.403 12.5615C104.383 12.5819 104.371 12.6044 104.368 12.6274C104.365 12.6505 104.37 12.6736 104.384 12.6955C104.566 13.0257 104.696 13.3636 104.774 13.7056C104.788 13.7352 104.815 13.7624 104.854 13.7845C104.892 13.8065 104.941 13.8226 104.994 13.8312L105.124 13.8859ZM92.6743 13.3398C92.7558 13.3399 92.8343 13.323 92.8938 13.2926C92.9532 13.2621 92.9892 13.2204 92.9943 13.176C93.0404 12.8402 93.1821 12.5105 93.4143 12.1986C93.4307 12.1774 93.4394 12.1547 93.4398 12.1317C93.4402 12.1087 93.4322 12.086 93.4164 12.0647C93.4006 12.0434 93.3773 12.024 93.3477 12.0076C93.3182 11.9912 93.2831 11.9782 93.2443 11.9692C93.2056 11.9602 93.1639 11.9555 93.1219 11.9553C93.0798 11.9551 93.038 11.9594 92.999 11.9681C92.96 11.9767 92.9245 11.9894 92.8945 12.0056C92.8645 12.0217 92.8407 12.0409 92.8243 12.0621C92.5593 12.4096 92.4005 12.7785 92.3543 13.1542C92.3502 13.1775 92.3547 13.2011 92.3677 13.2235C92.3807 13.2459 92.4018 13.2667 92.4298 13.2845C92.4578 13.3024 92.4922 13.317 92.5307 13.3274C92.5693 13.3378 92.6113 13.3439 92.6543 13.3453L92.6743 13.3398ZM132.414 12.5699C132.467 12.5704 132.52 12.5637 132.567 12.5503C132.614 12.537 132.654 12.5174 132.684 12.4934C132.732 12.4548 132.75 12.4076 132.735 12.3618C132.72 12.316 132.673 12.2751 132.604 12.2477C132.064 12.0457 131.504 11.8491 130.954 11.6635C130.88 11.6392 130.791 11.6319 130.707 11.6431C130.623 11.6544 130.55 11.6832 130.504 11.7235C130.483 11.7432 130.468 11.7651 130.462 11.7878C130.456 11.8106 130.458 11.8338 130.468 11.8561C130.478 11.8784 130.496 11.8995 130.521 11.9179C130.547 11.9364 130.578 11.952 130.614 11.9638C131.161 12.1494 131.701 12.3405 132.234 12.5371C132.287 12.5577 132.35 12.5692 132.414 12.5699ZM103.914 11.7781C103.957 11.7837 104.002 11.7837 104.044 11.7781C104.123 11.7589 104.185 11.7236 104.217 11.6797C104.249 11.6358 104.248 11.5868 104.214 11.5433C103.964 11.2321 103.674 10.9045 103.344 10.5768C103.324 10.5562 103.297 10.5379 103.264 10.5231C103.231 10.5082 103.193 10.4972 103.152 10.4906C103.111 10.484 103.068 10.4819 103.025 10.4845C102.983 10.4872 102.942 10.4944 102.904 10.5058C102.83 10.5289 102.775 10.5668 102.75 10.6116C102.726 10.6565 102.735 10.7047 102.774 10.7461C103.094 11.0628 103.384 11.3795 103.624 11.6853C103.648 11.717 103.688 11.7442 103.739 11.7637C103.791 11.7831 103.852 11.7938 103.914 11.7945V11.7781ZM129.044 11.4778C129.104 11.4785 129.162 11.4702 129.213 11.4539C129.265 11.4375 129.306 11.4136 129.334 11.385C129.374 11.3435 129.382 11.2953 129.358 11.2505C129.334 11.2057 129.279 11.1677 129.204 11.1447C128.634 10.9754 128.044 10.8116 127.454 10.6533C127.416 10.6431 127.375 10.6371 127.333 10.6357C127.29 10.6343 127.248 10.6376 127.208 10.6452C127.168 10.6528 127.131 10.6647 127.1 10.6801C127.068 10.6956 127.042 10.7143 127.024 10.7352C127.006 10.756 126.995 10.7785 126.992 10.8016C126.99 10.8247 126.995 10.8479 127.009 10.8697C127.023 10.8915 127.045 10.9116 127.073 10.9289C127.102 10.9461 127.136 10.9601 127.174 10.97C127.754 11.1229 128.334 11.2867 128.894 11.456C128.939 11.4708 128.992 11.4784 129.044 11.4778ZM93.9643 11.3413C94.0121 11.3409 94.0593 11.3349 94.1025 11.3236C94.1457 11.3122 94.1838 11.2959 94.2143 11.2758C94.6186 11.0175 95.0748 10.7849 95.5743 10.5823C95.6098 10.5693 95.64 10.5524 95.6629 10.5327C95.6859 10.513 95.7012 10.4909 95.7077 10.4678C95.7143 10.4447 95.7121 10.4211 95.7011 10.3986C95.6902 10.376 95.6708 10.3549 95.6443 10.3366C95.6204 10.3172 95.5895 10.3007 95.5534 10.2882C95.5173 10.2756 95.4769 10.2673 95.4346 10.2637C95.3923 10.2601 95.3492 10.2613 95.3078 10.2673C95.2665 10.2733 95.2278 10.2838 95.1943 10.2983C94.6501 10.5179 94.1535 10.7708 93.7143 11.0519C93.6573 11.0852 93.6257 11.1292 93.6257 11.1748C93.6257 11.2204 93.6573 11.2643 93.7143 11.2976C93.7584 11.3191 93.8121 11.3339 93.87 11.3406C93.9278 11.3473 93.9879 11.3457 94.0443 11.3358L93.9643 11.3413ZM125.544 10.5495C125.608 10.5479 125.669 10.5369 125.722 10.5176C125.775 10.4984 125.817 10.4717 125.844 10.4403C125.861 10.4192 125.869 10.3964 125.87 10.3735C125.87 10.3505 125.862 10.3277 125.846 10.3064C125.831 10.2851 125.807 10.2657 125.778 10.2493C125.748 10.233 125.713 10.2199 125.674 10.211C125.064 10.069 124.454 9.93797 123.844 9.81238C123.763 9.79632 123.674 9.79818 123.596 9.81756C123.517 9.83694 123.456 9.87233 123.424 9.91613C123.395 9.96103 123.4 10.0103 123.438 10.0533C123.475 10.0963 123.542 10.1294 123.624 10.1455C124.224 10.2656 124.824 10.3966 125.414 10.5331C125.471 10.5465 125.534 10.5503 125.594 10.5441L125.544 10.5495ZM97.0543 10.069C97.0998 10.077 97.1488 10.077 97.1943 10.069C97.7668 9.91822 98.3544 9.78514 98.9543 9.6704C98.9945 9.66303 99.0317 9.65136 99.0636 9.63607C99.0955 9.62078 99.1215 9.60217 99.1402 9.58133C99.1588 9.5605 99.1696 9.53786 99.172 9.51471C99.1744 9.49156 99.1684 9.46838 99.1543 9.44652C99.1408 9.42454 99.1194 9.40424 99.0914 9.38682C99.0634 9.36939 99.0293 9.35519 98.9912 9.34502C98.953 9.33486 98.9116 9.32895 98.8692 9.32763C98.8268 9.3263 98.7843 9.32958 98.7443 9.33731C98.1171 9.45655 97.5027 9.59511 96.9043 9.7523C96.828 9.7744 96.7707 9.81192 96.7445 9.85684C96.7184 9.90175 96.7254 9.95048 96.7642 9.99256C96.801 10.0219 96.8532 10.0443 96.914 10.057C96.9747 10.0697 97.0411 10.072 97.1043 10.0636L97.0543 10.069ZM102.054 9.92158C102.115 9.92363 102.175 9.91397 102.224 9.89428C102.261 9.88257 102.292 9.86692 102.317 9.84829C102.342 9.82966 102.36 9.80843 102.369 9.78593C102.379 9.76343 102.379 9.74013 102.372 9.71744C102.364 9.69476 102.348 9.67317 102.324 9.65402C102.164 9.51205 101.994 9.37554 101.824 9.22811L102.714 9.12982C102.798 9.12183 102.872 9.09605 102.921 9.05817C102.97 9.02029 102.989 8.97339 102.974 8.92777C102.967 8.90464 102.951 8.88253 102.928 8.86277C102.905 8.84301 102.875 8.82599 102.839 8.81274C102.804 8.79949 102.764 8.79029 102.722 8.78567C102.68 8.78104 102.636 8.78109 102.594 8.78581C102.204 8.82404 101.814 8.86772 101.434 8.91686L101.234 8.76397C101.21 8.74478 101.179 8.72841 101.144 8.71579C101.108 8.70318 101.068 8.69458 101.026 8.69051C100.984 8.68645 100.941 8.68699 100.9 8.6921C100.858 8.69721 100.819 8.7068 100.784 8.72029C100.749 8.7334 100.719 8.75021 100.696 8.76973C100.673 8.78925 100.657 8.81109 100.65 8.83397C100.642 8.85686 100.643 8.88031 100.653 8.90298C100.662 8.92565 100.68 8.94708 100.704 8.966L100.754 9.00423H100.674C100.591 9.01706 100.519 9.04681 100.475 9.08741C100.43 9.12802 100.416 9.17639 100.434 9.22264C100.46 9.26721 100.515 9.30488 100.589 9.32816C100.663 9.35143 100.751 9.35861 100.834 9.34824L101.144 9.31001C101.374 9.48475 101.584 9.66494 101.784 9.85605C101.816 9.87659 101.856 9.89274 101.901 9.90318C101.946 9.91362 101.995 9.91807 102.044 9.91613L102.054 9.92158ZM121.914 9.80691C121.983 9.80852 122.051 9.79758 122.107 9.77583C122.163 9.75408 122.204 9.72276 122.224 9.68678C122.25 9.64188 122.242 9.59334 122.203 9.55152C122.163 9.5097 122.096 9.4779 122.014 9.4629C121.394 9.35915 120.754 9.2554 120.124 9.16804C120.084 9.1615 120.041 9.1596 119.999 9.16245C119.957 9.16531 119.916 9.17286 119.879 9.18463C119.843 9.19641 119.811 9.21216 119.786 9.23091C119.761 9.24966 119.744 9.27101 119.734 9.29363C119.724 9.31586 119.721 9.339 119.727 9.36174C119.733 9.38447 119.747 9.40636 119.768 9.42614C119.79 9.44592 119.818 9.4632 119.852 9.477C119.885 9.4908 119.924 9.50087 119.964 9.5066C120.584 9.59396 121.204 9.6977 121.824 9.80145L121.914 9.80691ZM118.154 9.26087C118.229 9.2614 118.301 9.24736 118.358 9.22131C118.414 9.19525 118.452 9.15891 118.464 9.11889C118.473 9.0963 118.474 9.07298 118.466 9.05029C118.458 9.02759 118.442 9.00596 118.419 8.98666C118.395 8.96737 118.365 8.95079 118.33 8.93787C118.295 8.92495 118.256 8.91595 118.214 8.91139C117.574 8.83495 116.924 8.76943 116.284 8.71483C116.201 8.7069 116.115 8.71739 116.045 8.74401C115.976 8.77062 115.929 8.8112 115.914 8.8568C115.906 8.87987 115.906 8.90365 115.915 8.92664C115.924 8.94964 115.942 8.97134 115.968 8.99035C115.993 9.00936 116.025 9.02526 116.063 9.03706C116.1 9.04885 116.141 9.05627 116.184 9.05884C116.814 9.1189 117.454 9.18442 118.084 9.2554L118.154 9.26087ZM104.584 8.96055C105.214 8.91141 105.864 8.87317 106.504 8.84587C106.59 8.84169 106.669 8.81937 106.725 8.78367C106.782 8.74796 106.81 8.70169 106.804 8.65475C106.801 8.63177 106.788 8.60942 106.769 8.589C106.749 8.56857 106.722 8.55048 106.69 8.53576C106.657 8.52103 106.62 8.50998 106.579 8.50323C106.539 8.49647 106.496 8.49416 106.454 8.49641C105.804 8.49641 105.144 8.56193 104.454 8.61108C104.412 8.61372 104.372 8.62099 104.336 8.63244C104.299 8.64389 104.267 8.65927 104.242 8.67767C104.217 8.69606 104.198 8.71707 104.189 8.73942C104.179 8.76177 104.177 8.78498 104.184 8.80764C104.188 8.83415 104.203 8.85986 104.227 8.88282C104.252 8.90577 104.285 8.92536 104.326 8.94011C104.366 8.95485 104.413 8.96436 104.461 8.9679C104.509 8.97144 104.558 8.96893 104.604 8.96055H104.584ZM114.304 8.91686C114.384 8.91705 114.461 8.90091 114.521 8.8716C114.58 8.8423 114.617 8.80195 114.624 8.7585C114.633 8.71297 114.608 8.66744 114.556 8.63171C114.503 8.59597 114.427 8.57289 114.344 8.5674C113.694 8.52372 113.034 8.49094 112.344 8.4691C112.302 8.46762 112.26 8.47069 112.22 8.47813C112.18 8.48557 112.144 8.49724 112.112 8.51246C112.08 8.52768 112.055 8.54615 112.036 8.56682C112.018 8.58749 112.007 8.60996 112.004 8.63292C112 8.65604 112.005 8.67937 112.018 8.70146C112.031 8.72356 112.052 8.74394 112.08 8.76135C112.108 8.77877 112.143 8.79284 112.181 8.80268C112.22 8.81252 112.262 8.81794 112.304 8.81858C112.944 8.84588 113.594 8.87318 114.224 8.91686H114.304ZM108.464 8.78581C109.114 8.78581 109.754 8.78581 110.404 8.78581C110.446 8.78655 110.487 8.78271 110.526 8.77453C110.565 8.76636 110.6 8.754 110.63 8.73821C110.66 8.72241 110.684 8.7035 110.7 8.6826C110.716 8.6617 110.724 8.63924 110.724 8.61654C110.726 8.59359 110.719 8.57072 110.704 8.54924C110.689 8.52776 110.666 8.5081 110.638 8.49136C110.609 8.47463 110.574 8.46114 110.536 8.4517C110.498 8.44226 110.456 8.43705 110.414 8.43634C109.754 8.43634 109.104 8.43634 108.414 8.43634C108.371 8.43703 108.329 8.44242 108.29 8.4522C108.251 8.46198 108.216 8.47596 108.187 8.49328C108.158 8.5106 108.136 8.53092 108.122 8.55304C108.108 8.57515 108.102 8.5986 108.104 8.62199C108.106 8.64705 108.118 8.67158 108.139 8.6939C108.16 8.71622 108.19 8.73581 108.226 8.75135C108.262 8.7669 108.303 8.77802 108.348 8.78397C108.393 8.78991 108.439 8.79054 108.484 8.78581H108.464ZM99.8143 8.1797C99.8871 8.18018 99.9579 8.16666 100.014 8.14149C100.073 8.10878 100.107 8.06463 100.107 8.01863C100.107 7.97262 100.073 7.92847 100.014 7.89576C99.6142 7.61182 99.1943 7.34972 98.7743 7.06032C98.7144 7.02797 98.6335 7.00983 98.5493 7.00983C98.465 7.00983 98.3842 7.02797 98.3243 7.06032C98.2644 7.09395 98.2309 7.13901 98.2309 7.18591C98.2309 7.23282 98.2644 7.27786 98.3243 7.31149C98.7343 7.57359 99.1543 7.85753 99.5443 8.12509C99.5759 8.15069 99.6194 8.17127 99.6704 8.1847C99.7213 8.19813 99.7779 8.20394 99.8343 8.20155L99.8143 8.1797ZM97.2743 6.54157C97.315 6.54169 97.3555 6.53741 97.3933 6.52897C97.431 6.52054 97.4653 6.50812 97.4943 6.49243C97.5249 6.47661 97.5492 6.45756 97.5658 6.43644C97.5825 6.41532 97.591 6.39256 97.591 6.36957C97.591 6.34657 97.5825 6.32383 97.5658 6.30271C97.5492 6.28159 97.5249 6.26254 97.4943 6.24672C97.0443 5.98462 96.5743 5.73344 96.0943 5.49318C96.0653 5.47649 96.0304 5.4632 95.9917 5.45412C95.953 5.44504 95.9114 5.44034 95.8693 5.44034C95.8272 5.44034 95.7855 5.44504 95.7468 5.45412C95.7081 5.4632 95.6732 5.47649 95.6443 5.49318C95.6134 5.50947 95.5889 5.52898 95.5722 5.55055C95.5554 5.57213 95.5468 5.59532 95.5468 5.61876C95.5468 5.64219 95.5554 5.66539 95.5722 5.68696C95.5889 5.70854 95.6134 5.72806 95.6443 5.74435C96.1143 5.97915 96.5743 6.23033 97.0243 6.48151C97.0506 6.50767 97.0899 6.52923 97.1377 6.54372C97.1854 6.55821 97.2397 6.56504 97.2943 6.56342L97.2743 6.54157ZM94.4243 5.09456C94.5188 5.09325 94.6086 5.07168 94.6743 5.0345C94.7341 5.00087 94.7676 4.95581 94.7676 4.90891C94.7676 4.86201 94.7341 4.81695 94.6743 4.78331C94.1643 4.55398 93.6743 4.33557 93.1143 4.12807C93.0796 4.11458 93.0404 4.10499 92.9989 4.09988C92.9573 4.09476 92.9144 4.09423 92.8725 4.09829C92.8306 4.10236 92.7906 4.11096 92.7548 4.12357C92.7191 4.13619 92.6883 4.15256 92.6643 4.17175C92.6391 4.19034 92.6209 4.21148 92.6107 4.23394C92.6006 4.2564 92.5987 4.27974 92.6053 4.30259C92.6118 4.32545 92.6265 4.34738 92.6486 4.3671C92.6708 4.38682 92.6999 4.40394 92.7343 4.41747C93.2543 4.62133 93.7642 4.83428 94.2642 5.05633C94.3095 5.08723 94.3733 5.10849 94.4443 5.11641L94.4243 5.09456ZM91.2543 3.8605C91.3083 3.8604 91.3614 3.85284 91.4086 3.83852C91.4558 3.8242 91.4956 3.80358 91.5243 3.7786C91.5696 3.73861 91.5846 3.69053 91.5659 3.64462C91.5472 3.59871 91.4964 3.55862 91.4243 3.53289C90.8643 3.34723 90.2843 3.16704 89.7043 2.98685C89.6272 2.96564 89.538 2.96176 89.4557 2.97605C89.3735 2.99034 89.3047 3.02165 89.2642 3.06328C89.2259 3.10456 89.2191 3.15247 89.2453 3.19649C89.2716 3.24052 89.3287 3.27705 89.4043 3.29808C89.9743 3.46189 90.5343 3.63662 91.0843 3.84412C91.1096 3.85711 91.1396 3.86718 91.1722 3.87375C91.2048 3.88031 91.2395 3.88324 91.2743 3.88235L91.2543 3.8605ZM87.7943 2.87763C87.8575 2.87844 87.9197 2.86903 87.9731 2.85057C88.0264 2.8321 88.0686 2.80542 88.0943 2.77388C88.1107 2.75273 88.1194 2.73002 88.1198 2.70704C88.1201 2.68406 88.1122 2.66126 88.0964 2.63995C88.0806 2.61865 88.0573 2.59925 88.0277 2.58288C87.9982 2.56651 87.9631 2.55349 87.9243 2.54455C87.3243 2.40258 86.7043 2.27153 86.0843 2.1514C86.0442 2.14368 86.0018 2.14038 85.9594 2.1417C85.9171 2.14303 85.8755 2.14894 85.8374 2.1591C85.7992 2.16926 85.7652 2.18347 85.7372 2.20089C85.7092 2.21832 85.6878 2.23862 85.6743 2.2606C85.6601 2.28246 85.6541 2.30564 85.6565 2.32879C85.659 2.35193 85.6698 2.37457 85.6884 2.39541C85.707 2.41625 85.733 2.43486 85.7649 2.45015C85.7968 2.46544 85.834 2.47711 85.8743 2.48448C86.4743 2.59915 87.0843 2.7302 87.6643 2.86671C87.7083 2.88446 87.76 2.89574 87.8143 2.89948L87.7943 2.87763ZM62.8943 2.4408H62.9643L64.8643 2.22237C64.9067 2.21845 64.9471 2.20992 64.9833 2.19728C65.0195 2.18463 65.0507 2.16813 65.0749 2.14877C65.0992 2.1294 65.1161 2.10756 65.1245 2.08456C65.133 2.06156 65.133 2.03787 65.1243 2.01489C65.1051 1.96986 65.055 1.93058 64.9842 1.90517C64.9135 1.87977 64.8276 1.87017 64.7443 1.87838C64.1043 1.9439 63.4643 2.02035 62.8243 2.09679C62.7419 2.10727 62.6699 2.13464 62.6234 2.17326C62.5769 2.21188 62.5593 2.2588 62.5743 2.30429C62.5864 2.34866 62.6275 2.38913 62.69 2.41824C62.7525 2.44735 62.8321 2.46312 62.9143 2.46263L62.8943 2.4408ZM84.1143 2.1787C84.187 2.17995 84.2582 2.16766 84.3164 2.14384C84.3745 2.12001 84.4162 2.0861 84.4343 2.04765C84.4448 2.02542 84.4472 2.00227 84.4413 1.97953C84.4354 1.95679 84.4215 1.93492 84.4001 1.91514C84.3788 1.89536 84.3505 1.87807 84.3169 1.86426C84.2833 1.85046 84.245 1.84041 84.2043 1.83469C83.5743 1.74186 82.9343 1.6545 82.2843 1.58351C82.1995 1.57547 82.1124 1.58581 82.0415 1.61232C81.9705 1.63884 81.9212 1.67945 81.9043 1.72549C81.8892 1.77098 81.9068 1.81788 81.9533 1.8565C81.9999 1.89512 82.0718 1.9225 82.1543 1.93297C82.7943 1.9985 83.4243 2.0804 84.0343 2.17323L84.1143 2.1787ZM66.7143 2.0258H66.7743C67.4409 1.96392 68.081 1.90932 68.6943 1.862C68.7785 1.85395 68.8535 1.82839 68.9039 1.79071C68.9543 1.75303 68.9759 1.70616 68.9643 1.65995C68.9594 1.63711 68.9462 1.61505 68.9252 1.59511C68.9042 1.57517 68.876 1.55776 68.8423 1.54397C68.8086 1.53017 68.7701 1.52028 68.7292 1.51487C68.6883 1.50947 68.6458 1.50866 68.6043 1.51252C67.9543 1.56167 67.3143 1.61626 66.6643 1.67633C66.5808 1.68433 66.5065 1.7101 66.4577 1.74798C66.409 1.78586 66.3897 1.83277 66.4043 1.87838C66.4042 1.90156 66.4128 1.92449 66.4297 1.94577C66.4465 1.96705 66.4711 1.98622 66.502 2.00209C66.533 2.01796 66.5696 2.0302 66.6095 2.03804C66.6495 2.04587 66.6919 2.04915 66.7343 2.04765L66.7143 2.0258ZM80.3043 1.75825C80.3821 1.75745 80.4569 1.74166 80.5154 1.71369C80.574 1.68571 80.6125 1.64735 80.6243 1.60536C80.6299 1.58238 80.627 1.55902 80.6159 1.53665C80.6048 1.51428 80.5857 1.49334 80.5597 1.47505C80.5336 1.45675 80.5011 1.44146 80.4641 1.43009C80.4272 1.41871 80.3864 1.41147 80.3443 1.40877C79.7043 1.35963 79.0443 1.32141 78.3443 1.29411C78.3027 1.29186 78.2609 1.29421 78.221 1.30103C78.1812 1.30784 78.1443 1.31898 78.1126 1.33377C78.0808 1.34856 78.0548 1.36668 78.0362 1.38708C78.0176 1.40747 78.0068 1.42972 78.0043 1.45247C78.0002 1.47543 78.0044 1.49861 78.0168 1.52067C78.0291 1.54274 78.0494 1.56324 78.0763 1.58101C78.1033 1.59878 78.1365 1.61347 78.1739 1.6242C78.2113 1.63494 78.2522 1.64152 78.2943 1.64357C78.9443 1.67087 79.5943 1.70911 80.2143 1.75825H80.3043ZM70.5743 1.73094C71.2143 1.69271 71.8643 1.66542 72.5043 1.63812C72.5464 1.63673 72.5875 1.63081 72.6253 1.62072C72.6632 1.61063 72.697 1.59656 72.7249 1.57931C72.7528 1.56206 72.7741 1.54197 72.7878 1.52021C72.8014 1.49844 72.807 1.47542 72.8043 1.45247C72.8018 1.42901 72.7907 1.40605 72.7716 1.38499C72.7525 1.36394 72.7258 1.34521 72.6931 1.32992C72.6604 1.31463 72.6224 1.30308 72.5814 1.29599C72.5404 1.2889 72.4971 1.2864 72.4543 1.28864C71.8043 1.28864 71.1543 1.34326 70.4543 1.38148C70.4122 1.38353 70.3712 1.3901 70.3338 1.40084C70.2964 1.41158 70.2633 1.42627 70.2364 1.44403C70.2094 1.4618 70.1892 1.48231 70.1768 1.50437C70.1644 1.52644 70.1601 1.54961 70.1643 1.57258C70.1592 1.60203 70.1679 1.6317 70.1895 1.65882C70.2112 1.68593 70.2451 1.7096 70.2881 1.7276C70.331 1.74561 70.3817 1.75736 70.4352 1.76177C70.4888 1.76617 70.5435 1.76308 70.5943 1.75278L70.5743 1.73094ZM76.4143 1.58898C76.4984 1.58906 76.5795 1.57157 76.6408 1.5401C76.7022 1.50864 76.7392 1.46556 76.7443 1.41969C76.7456 1.39629 76.7383 1.37298 76.7229 1.35115C76.7074 1.32932 76.684 1.3094 76.6541 1.29259C76.6243 1.27578 76.5886 1.26242 76.5491 1.2533C76.5096 1.24418 76.4672 1.23949 76.4243 1.2395C75.7743 1.2395 75.1143 1.2395 74.4243 1.2395C74.3814 1.23949 74.339 1.24418 74.2995 1.2533C74.26 1.26242 74.2242 1.27578 74.1944 1.29259C74.1645 1.3094 74.1412 1.32932 74.1257 1.35115C74.1102 1.37298 74.1029 1.39629 74.1043 1.41969C74.1069 1.46508 74.1417 1.50814 74.2014 1.53974C74.2612 1.57133 74.3411 1.589 74.4243 1.58898H76.3743H76.4143Z" fill="#999999"/>
<path d="M26.4541 41.98L23.6341 42.6462L12.3641 38.3543L9.36411 39.2607C6.95411 40.047 4.61411 40.1016 3.49411 39.7522L3.26407 39.8122C1.52407 40.2272 0.494074 39.8559 0.144073 39.4082C-0.205927 38.9604 -0.00589943 38.3161 1.7341 37.8902L1.96408 37.8356C2.17408 37.2895 3.08413 36.3722 6.63412 35.8316L9.90408 35.2582L11.9041 27.8375L14.7241 27.1659L16.9141 34.0406L24.9741 32.5335L26.1941 30.7698L28.4341 30.3166L28.5941 31.9547L29.3941 31.9165L30.1241 32.8284L29.5241 33.1505L31.6441 34.3518L29.5041 34.9361L26.3241 34.2153L18.7941 36.3995L26.4541 41.98ZM26.2441 33.8167L29.4441 34.5429L30.4441 34.259L28.5041 33.1669L29.2341 32.7628L28.8941 32.3315L27.8941 32.3806L27.7441 30.8517L26.6541 31.0701L25.4341 32.8393L16.3141 34.5375L14.1441 27.7065L12.4541 28.1051L10.5041 35.5531L6.81412 36.1974C3.37412 36.7162 2.69409 37.5571 2.59409 38.0103V38.125L2.39407 38.1632C2.26702 38.1829 2.14326 38.2085 2.02408 38.2396C0.954079 38.4908 0.474089 38.8894 0.784088 39.2716C1.09409 39.6539 1.94407 39.7413 3.01407 39.4846C3.13447 39.4581 3.25145 39.427 3.36411 39.3918L3.55411 39.3317L3.7341 39.4027C4.4641 39.6976 6.59411 39.7522 9.05411 38.955L12.4141 37.9284L23.7141 42.2367L25.4041 41.8381L17.7441 36.3012L26.2441 33.8167Z" fill="#999999"/>
</svg>
