<svg width="32" height="17" viewBox="0 0 32 17" fill="none" xmlns="http://www.w3.org/2000/svg">
<path d="M26.454 15.4808L23.6341 16.1469L12.3641 11.855L9.36407 12.7615C6.95407 13.5478 4.61408 13.6024 3.49408 13.2529L3.26404 13.313C1.52404 13.728 0.494043 13.3566 0.144043 12.9089C-0.205957 12.4611 -0.00592995 11.8168 1.73407 11.3909L1.96405 11.3363C2.17405 10.7902 3.0841 9.8729 6.63409 9.33232L9.90405 8.75896L11.9041 1.33825L14.7241 0.666626L16.9141 7.5413L24.9741 6.03422L26.1941 4.27049L28.4341 3.81729L28.5941 5.45541L29.394 5.41719L30.1241 6.32908L29.524 6.65125L31.644 7.85255L29.5041 8.4368L26.3241 7.71604L18.7941 9.90021L26.454 15.4808ZM26.2441 7.31742L29.4441 8.04365L30.4441 7.75971L28.5041 6.66763L29.2341 6.26356L28.894 5.83218L27.894 5.88133L27.7441 4.35241L26.6541 4.57083L25.4341 6.34L16.3141 8.0382L14.144 1.2072L12.454 1.60582L10.5041 9.05383L6.81409 9.69816C3.37409 10.2169 2.69406 11.0578 2.59406 11.511V11.6257L2.39404 11.6639C2.26699 11.6837 2.14323 11.7093 2.02405 11.7404C0.954048 11.9915 0.474058 12.3902 0.784058 12.7724C1.09406 13.1546 1.94404 13.242 3.01404 12.9853C3.13444 12.9588 3.25142 12.9278 3.36407 12.8925L3.55408 12.8325L3.73407 12.9034C4.46407 13.1983 6.59408 13.2529 9.05408 12.4557L12.4141 11.4291L23.7141 15.7374L25.4041 15.3388L17.7441 9.80191L26.2441 7.31742Z" fill="#999999"/>
</svg>
