<svg width="180" height="61" viewBox="0 0 180 61" fill="none" xmlns="http://www.w3.org/2000/svg">
<rect x="1.11584" y="0.316832" width="177.784" height="60.3664" rx="12.2517" fill="white"/>
<rect x="1.11584" y="0.316832" width="177.784" height="60.3664" rx="12.2517" stroke="#1B1C20" stroke-width="0.628294"/>
<path d="M15.8807 15.1938V30.5005V45.8071L31.3075 30.5005L15.8807 15.1938Z" fill="url(#paint0_linear_1346_609)"/>
<path d="M35.4524 26.3895L29.2228 22.7932L15.8807 15.0818V15.1953L31.3075 30.5019L35.4524 26.3895Z" fill="url(#paint1_linear_1346_609)"/>
<path d="M15.8807 45.8076V45.9184L29.2228 38.2097L35.4497 34.6107L31.3075 30.501L15.8807 45.8076Z" fill="url(#paint2_linear_1346_609)"/>
<path d="M35.4493 26.3879L31.3044 30.5003L35.4466 34.61L42.5645 30.5003L35.4493 26.3879Z" fill="url(#paint3_linear_1346_609)"/>
<path d="M52.3867 23.2746C53.5164 23.2746 54.5425 22.7674 54.8653 21.8451V23.1363H55.776V19.551H52.6518V20.3349H54.8653C54.7384 21.58 53.8623 22.4331 52.502 22.4331C50.9341 22.4331 49.8735 21.3148 49.8735 19.5164C49.8735 17.718 50.9226 16.5882 52.4097 16.5882C53.8738 16.5882 54.7269 17.4644 54.8076 18.7901L55.7645 18.7325C55.6377 16.8764 54.4502 15.7351 52.3982 15.7351C50.3923 15.7351 48.8475 17.2684 48.8475 19.5049C48.8475 21.7644 50.3346 23.2746 52.3867 23.2746Z" fill="#1B1C20"/>
<path d="M60.9001 21.3494C60.6926 22.1218 60.1968 22.5253 59.3553 22.5253C58.4561 22.5253 57.7528 21.8336 57.7067 20.8537H61.7186V20.4732C61.7186 19.1014 60.9001 17.9601 59.2976 17.9601C57.8451 17.9601 56.7499 19.1014 56.7499 20.6923C56.7499 22.2601 57.8451 23.2746 59.3437 23.2746C60.6003 23.2746 61.4419 22.5829 61.6955 21.4416L60.9001 21.3494ZM57.7298 20.2312C57.8451 19.4011 58.3869 18.6864 59.2976 18.6864C60.2545 18.6864 60.7041 19.4242 60.7387 20.2312H57.7298Z" fill="#1B1C20"/>
<path d="M62.8859 21.9604C62.8859 22.9403 63.3932 23.2746 64.1079 23.2746C64.6613 23.2746 65.0302 23.1248 65.3991 22.8481V22.2025C65.1109 22.3639 64.7766 22.5022 64.4538 22.5022C64.0157 22.5022 63.8312 22.2947 63.8312 21.8451V18.7901H65.2492V18.0984H63.8312V16.7035H63.2894L63.1395 17.4067C63.0242 17.8909 62.9205 18.1215 62.4478 18.2137L62.125 18.2713V18.7901H62.8859V21.9604Z" fill="#1B1C20"/>
<path d="M68.3083 18.0984V23.1363H69.2651V18.0984H68.3083ZM68.2852 16.9571H69.2766V15.8734H68.2852V16.9571Z" fill="#1B1C20"/>
<path d="M70.7441 21.9604C70.7441 22.9403 71.2513 23.2746 71.9661 23.2746C72.5194 23.2746 72.8883 23.1248 73.2573 22.8481V22.2025C72.969 22.3639 72.6347 22.5022 72.3119 22.5022C71.8739 22.5022 71.6894 22.2947 71.6894 21.8451V18.7901H73.1074V18.0984H71.6894V16.7035H71.1476L70.9977 17.4067C70.8824 17.8909 70.7787 18.1215 70.306 18.2137L69.9832 18.2713V18.7901H70.7441V21.9604Z" fill="#1B1C20"/>
<path d="M76.8236 20.6231C76.8236 19.4933 77.3884 18.7094 78.4029 18.7094C79.429 18.7094 80.0054 19.4933 80.0054 20.6231C80.0054 21.7414 79.429 22.5368 78.4029 22.5368C77.3884 22.5368 76.8236 21.7414 76.8236 20.6231ZM80.9853 20.6231C80.9853 19.0553 79.8901 17.9601 78.4029 17.9601C76.9273 17.9601 75.8436 19.0553 75.8436 20.6231C75.8436 22.191 76.9273 23.2746 78.4029 23.2746C79.8901 23.2746 80.9853 22.191 80.9853 20.6231Z" fill="#1B1C20"/>
<path d="M82.9325 20.2427C82.9325 19.3204 83.532 18.7209 84.2928 18.7209C85.0883 18.7209 85.4918 19.2512 85.4918 20.0928V23.1363H86.4486V20.0121C86.4486 18.8362 85.9183 17.9601 84.6041 17.9601C83.8548 17.9601 83.1746 18.3866 82.9325 18.9976V18.0984H81.9756V23.1363H82.9325V20.2427Z" fill="#1B1C20"/>
<path d="M55.9158 41.5228C57.8561 41.5228 59.5192 40.876 60.3046 39.4208V41.2456H63.3768V33.7846H56.5856V36.3255H60.0736C59.5654 37.7576 58.2026 38.5661 56.6087 38.5661C53.9524 38.5661 52.4509 36.7413 52.4509 33.9694C52.4509 31.2668 53.9062 29.5113 56.3316 29.5113C58.4336 29.5113 59.6809 30.6893 59.8657 32.5142L63.2844 32.3987C62.961 28.7259 60.4894 26.416 56.2623 26.416C52.1044 26.416 48.8475 29.4882 48.8475 33.9694C48.8475 38.4737 51.8734 41.5228 55.9158 41.5228Z" fill="#1B1C20"/>
<path d="M68.303 36.1176C68.303 34.4083 68.9729 33.2302 70.4512 33.2302C71.9064 33.2302 72.6225 34.4083 72.6225 36.1176C72.6225 37.8269 71.9064 39.005 70.4512 39.005C68.9729 39.005 68.303 37.8269 68.303 36.1176ZM75.995 36.1176C75.995 32.953 73.7313 30.7124 70.4512 30.7124C67.1711 30.7124 64.9305 32.953 64.9305 36.1176C64.9305 39.3053 67.1711 41.5228 70.4512 41.5228C73.7313 41.5228 75.995 39.3053 75.995 36.1176Z" fill="#1B1C20"/>
<path d="M80.4616 36.1176C80.4616 34.4083 81.1314 33.2302 82.6098 33.2302C84.065 33.2302 84.7811 34.4083 84.7811 36.1176C84.7811 37.8269 84.065 39.005 82.6098 39.005C81.1314 39.005 80.4616 37.8269 80.4616 36.1176ZM88.1535 36.1176C88.1535 32.953 85.8898 30.7124 82.6098 30.7124C79.3297 30.7124 77.0891 32.953 77.0891 36.1176C77.0891 39.3053 79.3297 41.5228 82.6098 41.5228C85.8898 41.5228 88.1535 39.3053 88.1535 36.1176Z" fill="#1B1C20"/>
<path d="M99.1819 34.2235C99.1819 33.6922 99.0433 33.2302 98.8123 32.8144C99.3205 32.6759 99.921 32.6066 100.406 32.6066V30.0426C99.2974 30.0426 98.2117 30.7355 97.6111 31.5671C96.7565 31.0127 95.5784 30.7124 94.3311 30.7124C91.513 30.7124 89.5034 32.0522 89.5034 34.2235C89.5034 35.3322 90.0347 36.2331 90.9586 36.8337C89.8961 37.2264 89.2493 37.9886 89.2493 38.9357C89.2493 39.8135 89.7806 40.5988 90.7045 40.8991C89.5265 41.0146 88.718 41.7538 88.718 42.7008C88.718 44.618 91.1896 45.2648 94.077 45.2648C97.3571 45.2648 100.406 44.133 100.406 41.569C100.406 39.8827 99.2281 38.6585 96.9413 38.6585H92.7372C92.0674 38.6585 91.7902 38.3582 91.7902 37.9655C91.7902 37.7114 91.9057 37.5266 92.0674 37.3881C92.7372 37.5959 93.4995 37.7114 94.3311 37.7114C97.1492 37.7114 99.1819 36.3717 99.1819 34.2235ZM91.5592 42.3081C91.5592 41.7769 91.975 41.5228 92.5063 41.5228H96.1328C96.8951 41.5228 97.3109 41.7076 97.3109 42.2619C97.3109 43.0242 95.948 43.4169 94.1001 43.4169C92.5987 43.4169 91.5592 43.1166 91.5592 42.3081ZM95.7401 34.2235C95.7401 35.2629 95.1626 35.8635 94.3542 35.8635C93.5688 35.8635 92.9913 35.2629 92.9913 34.2235C92.9913 33.2071 93.5688 32.6297 94.3542 32.6297C95.1626 32.6297 95.7401 33.2071 95.7401 34.2235Z" fill="#1B1C20"/>
<path d="M101.51 26.6932V41.2456H104.836V26.6932H101.51Z" fill="#1B1C20"/>
<path d="M114.36 37.619C113.99 38.5661 113.274 39.005 112.119 39.005C110.825 39.005 109.809 38.2196 109.717 36.8568H117.108V35.8404C117.108 33.0454 115.33 30.7124 111.934 30.7124C108.793 30.7124 106.437 33.0454 106.437 36.2793C106.437 39.5363 108.746 41.5228 112.003 41.5228C114.683 41.5228 116.508 40.2061 117.039 37.8731L114.36 37.619ZM109.763 35.0782C109.948 33.9925 110.571 33.1378 111.911 33.1378C113.182 33.1378 113.828 34.0618 113.898 35.0782H109.763Z" fill="#1B1C20"/>
<path d="M126.475 33.6922V29.5113H128.993C130.91 29.5113 131.695 30.2505 131.695 31.6133C131.695 32.9761 130.91 33.6922 128.993 33.6922H126.475ZM126.475 36.5103H129.131C132.897 36.5103 135.091 34.7317 135.091 31.5902C135.091 28.4487 132.897 26.6932 129.131 26.6932H122.987V41.2456H126.475V36.5103Z" fill="#1B1C20"/>
<path d="M136.407 26.6932V41.2456H139.733V26.6932H136.407Z" fill="#1B1C20"/>
<path d="M147.94 36.903C147.94 38.3582 146.969 39.2822 145.745 39.2822C145.029 39.2822 144.567 38.9126 144.567 38.312C144.567 37.5035 145.214 37.2495 146.253 37.0416L147.94 36.6951V36.903ZM151.22 34.7086C151.22 31.9136 149.302 30.7124 146.623 30.7124C143.689 30.7124 142.049 32.237 141.703 34.4314L144.798 34.6624C144.983 33.8077 145.468 33.2071 146.438 33.2071C147.455 33.2071 147.94 33.7846 147.94 34.7548V34.9396L145.075 35.4477C142.812 35.8866 141.333 36.7182 141.333 38.6816C141.333 40.4371 142.627 41.4766 144.683 41.4766C146.276 41.4766 147.547 40.8529 148.124 39.6749C148.425 40.8298 149.326 41.4766 150.55 41.4766C151.566 41.4766 152.213 41.1763 152.721 40.8067V39.0281C152.421 39.1667 152.167 39.2129 151.866 39.2129C151.451 39.2129 151.22 38.9819 151.22 38.4506V34.7086Z" fill="#1B1C20"/>
<path d="M158.244 44.9876L164.135 30.9896H160.855L158.337 37.3881H158.244L155.773 30.9896H152.262L156.466 41.338L154.964 44.9876H158.244Z" fill="#1B1C20"/>
<defs>
<linearGradient id="paint0_linear_1346_609" x1="23.5935" y1="15.1926" x2="23.5935" y2="45.8066" gradientUnits="userSpaceOnUse">
<stop stop-color="#257CB0"/>
<stop offset="0.2863" stop-color="#4A93B5"/>
<stop offset="0.767" stop-color="#78BCBB"/>
<stop offset="1" stop-color="#89CFBD"/>
</linearGradient>
<linearGradient id="paint1_linear_1346_609" x1="15.8796" y1="22.7919" x2="35.4512" y2="22.7919" gradientUnits="userSpaceOnUse">
<stop stop-color="#52C1AD"/>
<stop offset="1" stop-color="#DEE89A"/>
</linearGradient>
<linearGradient id="paint2_linear_1346_609" x1="25.6652" y1="30.5003" x2="25.6652" y2="45.9184" gradientUnits="userSpaceOnUse">
<stop stop-color="#EC413D"/>
<stop offset="0.1668" stop-color="#DA4452"/>
<stop offset="0.5748" stop-color="#B0487A"/>
<stop offset="0.8619" stop-color="#954A92"/>
<stop offset="1" stop-color="#8A4A9D"/>
</linearGradient>
<linearGradient id="paint3_linear_1346_609" x1="36.9346" y1="26.3881" x2="36.9346" y2="34.6106" gradientUnits="userSpaceOnUse">
<stop stop-color="#F58879"/>
<stop offset="0.1194" stop-color="#F69079"/>
<stop offset="0.7128" stop-color="#FCB877"/>
<stop offset="1" stop-color="#FEC874"/>
</linearGradient>
</defs>
</svg>
