<svg width="29" height="29" viewBox="0 0 29 29" fill="none" xmlns="http://www.w3.org/2000/svg">
<path d="M8.9741 7.80754C8.56405 7.39749 7.89923 7.39749 7.48918 7.80754C7.07913 8.21759 7.07913 8.88241 7.48918 9.29246L12.6967 14.5L7.48918 19.7075C7.07913 20.1176 7.07913 20.7824 7.48918 21.1925C7.89923 21.6025 8.56405 21.6025 8.9741 21.1925L14.1816 15.9849L19.3892 21.1925C19.7992 21.6025 20.4641 21.6025 20.8741 21.1925C21.2842 20.7824 21.2842 20.1176 20.8741 19.7075L15.6666 14.5L20.8741 9.29246C21.2842 8.88241 21.2842 8.21759 20.8741 7.80754C20.4641 7.39749 19.7992 7.39749 19.3892 7.80754L14.1816 13.0151L8.9741 7.80754Z" fill="#131313"/>
</svg>
